<?xml version="1.0" encoding="UTF-8"?>
<!DOCTYPE svg PUBLIC "-//W3C//DTD SVG 1.1//EN" "http://www.w3.org/Graphics/SVG/1.1/DTD/svg11.dtd">
<svg version="1.2" xmlns="http://www.w3.org/2000/svg" xmlns:xlink="http://www.w3.org/1999/xlink" x="0" y="0" width="849" height="1324" viewBox="0 0 849 1324">
<style type="text/css"><![CDATA[
text { font:12px Dialog; }
]]></style>
<rect x="-485" y="-485" width="1819" height="2294" style="fill:rgb(255,255,255);stroke:none" />
<clipPath id="clip1"><path d="M15,15 L834,15 L834,1309 L15,1309 Z M25,620 C20.5820313,620 17,623.5820313 17,628 L17,688 C17,692.4179688 20.5820313,696 25,696 L197,696 C201.4179688,696 205,692.4179688 205,688 L205,628 C205,623.5820313 201.4179688,620 197,620 Z M25,620 Z M25,620" /></clipPath>
<path d="M215,658 L215,54 C215,49.5859375 218.5859375,46 223,46 L240,46" style="fill:none;stroke:rgb(10,92,185);stroke-width:2" clip-path="url(#clip1)" />
<clipPath id="clip2"><path d="M15,15 L834,15 L834,1309 L15,1309 Z M25,620 C20.5820313,620 17,623.5820313 17,628 L17,688 C17,692.4179688 20.5820313,696 25,696 L197,696 C201.4179688,696 205,692.4179688 205,688 L205,628 C205,623.5820313 201.4179688,620 197,620 Z M25,620 Z M25,620" /></clipPath>
<path d="M215,658 L215,113 C215,108.5859375 218.5859375,105 223,105 L240,105" style="fill:none;stroke:rgb(10,92,185);stroke-width:2" clip-path="url(#clip2)" />
<clipPath id="clip3"><path d="M15,15 L834,15 L834,1309 L15,1309 Z M25,620 C20.5820313,620 17,623.5820313 17,628 L17,688 C17,692.4179688 20.5820313,696 25,696 L197,696 C201.4179688,696 205,692.4179688 205,688 L205,628 C205,623.5820313 201.4179688,620 197,620 Z M25,620 Z M25,620" /></clipPath>
<path d="M215,658 L215,228 C215,223.5859375 218.5859375,220 223,220 L240,220" style="fill:none;stroke:rgb(10,92,185);stroke-width:2" clip-path="url(#clip3)" />
<clipPath id="clip4"><path d="M15,15 L834,15 L834,1309 L15,1309 Z M25,620 C20.5820313,620 17,623.5820313 17,628 L17,688 C17,692.4179688 20.5820313,696 25,696 L197,696 C201.4179688,696 205,692.4179688 205,688 L205,628 C205,623.5820313 201.4179688,620 197,620 Z M25,620 Z M25,620" /></clipPath>
<path d="M215,658 L215,518 C215,513.5859375 218.5859375,510 223,510 L240,510" style="fill:none;stroke:rgb(10,92,185);stroke-width:2" clip-path="url(#clip4)" />
<clipPath id="clip5"><path d="M15,15 L834,15 L834,1309 L15,1309 Z M25,620 C20.5820313,620 17,623.5820313 17,628 L17,688 C17,692.4179688 20.5820313,696 25,696 L197,696 C201.4179688,696 205,692.4179688 205,688 L205,628 C205,623.5820313 201.4179688,620 197,620 Z M25,620 Z M25,620" /></clipPath>
<path d="M215,658 L215,890 C215,894.4140625 218.5859375,898 223,898 L240,898" style="fill:none;stroke:rgb(10,92,185);stroke-width:2" clip-path="url(#clip5)" />
<clipPath id="clip6"><path d="M15,15 L834,15 L834,1309 L15,1309 Z M25,620 C20.5820313,620 17,623.5820313 17,628 L17,688 C17,692.4179688 20.5820313,696 25,696 L197,696 C201.4179688,696 205,692.4179688 205,688 L205,628 C205,623.5820313 201.4179688,620 197,620 Z M25,620 Z M25,620" /></clipPath>
<path d="M215,658 L215,1114 C215,1118.4140625 218.5859375,1122 223,1122 L240,1122" style="fill:none;stroke:rgb(10,92,185);stroke-width:2" clip-path="url(#clip6)" />
<clipPath id="clip7"><path d="M15,15 L834,15 L834,1309 L15,1309 Z M25,620 C20.5820313,620 17,623.5820313 17,628 L17,688 C17,692.4179688 20.5820313,696 25,696 L197,696 C201.4179688,696 205,692.4179688 205,688 L205,628 C205,623.5820313 201.4179688,620 197,620 Z M25,620 Z M25,620" /></clipPath>
<path d="M215,658 L215,1262 C215,1266.4140625 218.5859375,1270 223,1270 L240,1270" style="fill:none;stroke:rgb(10,92,185);stroke-width:2" clip-path="url(#clip7)" />
<clipPath id="clip8"><path d="M14,14 L835,14 L835,1310 L14,1310 L14,14 Z" /></clipPath>
<path d="M205,658 L215,658" style="fill:none;stroke:rgb(10,92,185);stroke-width:2" clip-path="url(#clip8)" />
<clipPath id="clip9"><path d="M14,617 L209,617 L209,700 L14,700 L14,617 Z" /></clipPath>
<path d="M25,620 C20.5820313,620 17,623.5820313 17,628 L17,688 C17,692.4179688 20.5820313,696 25,696 L197,696 C201.4179688,696 205,692.4179688 205,688 L205,628 C205,623.5820313 201.4179688,620 197,620 Z M25,620" style="fill:rgb(255,255,255);stroke:none" clip-path="url(#clip9)" />
<clipPath id="clip10"><path d="M14,617 L209,617 L209,700 L14,700 L14,617 Z" /></clipPath>
<path d="M25,620 C20.5820313,620 17,623.5820313 17,628 L17,688 C17,692.4179688 20.5820313,696 25,696 L197,696 C201.4179688,696 205,692.4179688 205,688 L205,628 C205,623.5820313 201.4179688,620 197,620 Z M25,620" style="fill:none;stroke:rgb(10,92,185);stroke-width:3" clip-path="url(#clip10)" />
<text x="52" y="659" style="font:20px Dialog">RQALPHA</text>
<clipPath id="clip11"><path d="M239,15 L491,15 L491,71 L239,71 Z M245,23 C242.2382813,23 240,25.2382813 240,28 L240,64 C240,66.7617188 242.2382813,69 245,69 L337,69 C339.7617188,69 342,66.7617188 342,64 L342,28 C342,25.2382813 339.7617188,23 337,23 Z M245,23 Z M245,23" /></clipPath>
<path d="M356,46 L364,46" style="fill:none;stroke:rgb(10,92,185);stroke-width:2" clip-path="url(#clip11)" />
<clipPath id="clip12"><path d="M238,14 L492,14 L492,72 L238,72 L238,14 Z" /></clipPath>
<path d="M342,46 L356,46" style="fill:none;stroke:rgb(10,92,185);stroke-width:2" clip-path="url(#clip12)" />
<clipPath id="clip13"><path d="M238,21 L345,21 L345,72 L238,72 L238,21 Z" /></clipPath>
<path d="M245,23 C242.2382813,23 240,25.2382813 240,28 L240,64 C240,66.7617188 242.2382813,69 245,69 L337,69 C339.7617188,69 342,66.7617188 342,64 L342,28 C342,25.2382813 339.7617188,23 337,23 Z M245,23" style="fill:rgb(255,255,255);stroke:none" clip-path="url(#clip13)" />
<clipPath id="clip14"><path d="M238,21 L345,21 L345,72 L238,72 L238,21 Z" /></clipPath>
<path d="M245,23 C242.2382813,23 240,25.2382813 240,28 L240,64 C240,66.7617188 242.2382813,69 245,69 L337,69 C339.7617188,69 342,66.7617188 342,64 L342,28 C342,25.2382813 339.7617188,23 337,23 Z M245,23" style="fill:none;stroke:rgb(13,70,170);stroke-width:2" clip-path="url(#clip14)" />
<text x="255" y="47" style="font:14px Dialog">MAIN.PY</text>
<clipPath id="clip15"><path d="M343,40 L356,40 L356,53 L343,53 L343,40 Z" /></clipPath>
<path d="M353.5,46 C353.5,43.515625 351.484375,41.5 349,41.5 C346.515625,41.5 344.5,43.515625 344.5,46 C344.5,48.484375 346.515625,50.5 349,50.5 C351.484375,50.5 353.5,48.484375 353.5,46 Z M353.5,46" style="fill:rgb(250,250,250);stroke:none" clip-path="url(#clip15)" />
<clipPath id="clip16"><path d="M343,40 L356,40 L356,53 L343,53 L343,40 Z" /></clipPath>
<path d="M353.5,46 C353.5,43.515625 351.484375,41.5 349,41.5 C346.515625,41.5 344.5,43.515625 344.5,46 C344.5,48.484375 346.515625,50.5 349,50.5 C351.484375,50.5 353.5,48.484375 353.5,46 Z M353.5,46" style="fill:none;stroke:rgb(10,92,185)" clip-path="url(#clip16)" />
<clipPath id="clip17"><path d="M343,40 L356,40 L356,53 L343,53 L343,40 Z" /></clipPath>
<path d="M347,46 L351,46" style="fill:none;stroke:rgb(150,160,200)" clip-path="url(#clip17)" />
<clipPath id="clip18"><path d="M362,14 L492,14 L492,48 L362,48 L362,14 Z" /></clipPath>
<path d="M364,46 L489,46 Z M364,46" style="fill:none;stroke:rgb(10,92,185);stroke-width:2" clip-path="url(#clip18)" />
<text x="375" y="31" style="font:10px Dialog">run 运行策略入口</text>
<clipPath id="clip19"><path d="M238,80 L428,80 L428,131 L238,131 L238,80 Z" /></clipPath>
<path d="M245,82 C242.2382813,82 240,84.2382813 240,87 L240,123 C240,125.7617188 242.2382813,128 245,128 L420,128 C422.7617188,128 425,125.7617188 425,123 L425,87 C425,84.2382813 422.7617188,82 420,82 Z M245,82" style="fill:rgb(255,255,255);stroke:none" clip-path="url(#clip19)" />
<clipPath id="clip20"><path d="M238,80 L428,80 L428,131 L238,131 L238,80 Z" /></clipPath>
<path d="M245,82 C242.2382813,82 240,84.2382813 240,87 L240,123 C240,125.7617188 242.2382813,128 245,128 L420,128 C422.7617188,128 425,125.7617188 425,123 L425,87 C425,84.2382813 422.7617188,82 420,82 Z M245,82" style="fill:none;stroke:rgb(13,70,170);stroke-width:2" clip-path="url(#clip20)" />
<text x="255" y="106" style="font:14px Dialog">ENVIRONMENT.PY</text>
<clipPath id="clip21"><path d="M239,140 L581,140 L581,271 L239,271 Z M245,197 C242.2382813,197 240,199.2382813 240,202 L240,238 C240,240.7617188 242.2382813,243 245,243 L314,243 C316.7617188,243 319,240.7617188 319,238 L319,202 C319,199.2382813 316.7617188,197 314,197 Z M245,197 Z M245,197" /></clipPath>
<path d="M333,220 L333,171 L341,171" style="fill:none;stroke:rgb(10,92,185);stroke-width:2" clip-path="url(#clip21)" />
<clipPath id="clip22"><path d="M239,140 L581,140 L581,271 L239,271 Z M245,197 C242.2382813,197 240,199.2382813 240,202 L240,238 C240,240.7617188 242.2382813,243 245,243 L314,243 C316.7617188,243 319,240.7617188 319,238 L319,202 C319,199.2382813 316.7617188,197 314,197 Z M245,197 Z M245,197" /></clipPath>
<path d="M333,220 L333,204 L341,204" style="fill:none;stroke:rgb(10,92,185);stroke-width:2" clip-path="url(#clip22)" />
<clipPath id="clip23"><path d="M239,140 L581,140 L581,271 L239,271 Z M245,197 C242.2382813,197 240,199.2382813 240,202 L240,238 C240,240.7617188 242.2382813,243 245,243 L314,243 C316.7617188,243 319,240.7617188 319,238 L319,202 C319,199.2382813 316.7617188,197 314,197 Z M245,197 Z M245,197" /></clipPath>
<path d="M333,220 L333,237 L341,237" style="fill:none;stroke:rgb(10,92,185);stroke-width:2" clip-path="url(#clip23)" />
<clipPath id="clip24"><path d="M239,140 L581,140 L581,271 L239,271 Z M245,197 C242.2382813,197 240,199.2382813 240,202 L240,238 C240,240.7617188 242.2382813,243 245,243 L314,243 C316.7617188,243 319,240.7617188 319,238 L319,202 C319,199.2382813 316.7617188,197 314,197 Z M245,197 Z M245,197" /></clipPath>
<path d="M333,220 L333,270 L341,270" style="fill:none;stroke:rgb(10,92,185);stroke-width:2" clip-path="url(#clip24)" />
<clipPath id="clip25"><path d="M238,139 L582,139 L582,272 L238,272 L238,139 Z" /></clipPath>
<path d="M319,220 L333,220" style="fill:none;stroke:rgb(10,92,185);stroke-width:2" clip-path="url(#clip25)" />
<clipPath id="clip26"><path d="M238,195 L322,195 L322,246 L238,246 L238,195 Z" /></clipPath>
<path d="M245,197 C242.2382813,197 240,199.2382813 240,202 L240,238 C240,240.7617188 242.2382813,243 245,243 L314,243 C316.7617188,243 319,240.7617188 319,238 L319,202 C319,199.2382813 316.7617188,197 314,197 Z M245,197" style="fill:rgb(255,255,255);stroke:none" clip-path="url(#clip26)" />
<clipPath id="clip27"><path d="M238,195 L322,195 L322,246 L238,246 L238,195 Z" /></clipPath>
<path d="M245,197 C242.2382813,197 240,199.2382813 240,202 L240,238 C240,240.7617188 242.2382813,243 245,243 L314,243 C316.7617188,243 319,240.7617188 319,238 L319,202 C319,199.2382813 316.7617188,197 314,197 Z M245,197" style="fill:none;stroke:rgb(13,70,170);stroke-width:2" clip-path="url(#clip27)" />
<text x="255" y="221" style="font:14px Dialog">CORE</text>
<clipPath id="clip28"><path d="M320,214 L333,214 L333,227 L320,227 L320,214 Z" /></clipPath>
<path d="M330.5,220 C330.5,217.515625 328.484375,215.5 326,215.5 C323.515625,215.5 321.5,217.515625 321.5,220 C321.5,222.484375 323.515625,224.5 326,224.5 C328.484375,224.5 330.5,222.484375 330.5,220 Z M330.5,220" style="fill:rgb(250,250,250);stroke:none" clip-path="url(#clip28)" />
<clipPath id="clip29"><path d="M320,214 L333,214 L333,227 L320,227 L320,214 Z" /></clipPath>
<path d="M330.5,220 C330.5,217.515625 328.484375,215.5 326,215.5 C323.515625,215.5 321.5,217.515625 321.5,220 C321.5,222.484375 323.515625,224.5 326,224.5 C328.484375,224.5 330.5,222.484375 330.5,220 Z M330.5,220" style="fill:none;stroke:rgb(10,92,185)" clip-path="url(#clip29)" />
<clipPath id="clip30"><path d="M320,214 L333,214 L333,227 L320,227 L320,214 Z" /></clipPath>
<path d="M324,220 L328,220" style="fill:none;stroke:rgb(150,160,200)" clip-path="url(#clip30)" />
<clipPath id="clip31"><path d="M339,139 L582,139 L582,173 L339,173 L339,139 Z" /></clipPath>
<path d="M341,171 L579,171 Z M341,171" style="fill:none;stroke:rgb(10,92,185);stroke-width:2" clip-path="url(#clip31)" />
<text x="352" y="156" style="font:10px Dialog">strategy_context.py策略执行上下文</text>
<clipPath id="clip32"><path d="M339,172 L561,172 L561,206 L339,206 L339,172 Z" /></clipPath>
<path d="M341,204 L558,204 Z M341,204" style="fill:none;stroke:rgb(10,92,185);stroke-width:2" clip-path="url(#clip32)" />
<text x="352" y="189" style="font:10px Dialog">strategy_loader.py加载策略代码</text>
<clipPath id="clip33"><path d="M339,205 L579,205 L579,239 L339,239 L339,205 Z" /></clipPath>
<path d="M341,237 L576,237 Z M341,237" style="fill:none;stroke:rgb(10,92,185);stroke-width:2" clip-path="url(#clip33)" />
<text x="352" y="222" style="font:10px Dialog">strategy.py根据策略代码构建策略类</text>
<clipPath id="clip34"><path d="M339,238 L574,238 L574,272 L339,272 L339,238 Z" /></clipPath>
<path d="M341,270 L571,270 Z M341,270" style="fill:none;stroke:rgb(10,92,185);stroke-width:2" clip-path="url(#clip34)" />
<text x="352" y="255" style="font:10px Dialog">strategy_universe.py策略的股票池</text>
<clipPath id="clip35"><path d="M239,281 L834,281 L834,709 L239,709 Z M245,487 C242.2382813,487 240,489.2382813 240,492 L240,528 C240,530.7617188 242.2382813,533 245,533 L329,533 C331.7617188,533 334,530.7617188 334,528 L334,492 C334,489.2382813 331.7617188,487 329,487 Z M245,487 Z M245,487" /></clipPath>
<path d="M348,510 L348,312 L356,312" style="fill:none;stroke:rgb(10,92,185);stroke-width:2" clip-path="url(#clip35)" />
<clipPath id="clip36"><path d="M239,281 L834,281 L834,709 L239,709 Z M245,487 C242.2382813,487 240,489.2382813 240,492 L240,528 C240,530.7617188 242.2382813,533 245,533 L329,533 C331.7617188,533 334,530.7617188 334,528 L334,492 C334,489.2382813 331.7617188,487 329,487 Z M245,487 Z M245,487" /></clipPath>
<path d="M348,510 L348,345 L356,345" style="fill:none;stroke:rgb(10,92,185);stroke-width:2" clip-path="url(#clip36)" />
<clipPath id="clip37"><path d="M239,281 L834,281 L834,709 L239,709 Z M245,487 C242.2382813,487 240,489.2382813 240,492 L240,528 C240,530.7617188 242.2382813,533 245,533 L329,533 C331.7617188,533 334,530.7617188 334,528 L334,492 C334,489.2382813 331.7617188,487 329,487 Z M245,487 Z M245,487" /></clipPath>
<path d="M348,510 L348,378 L356,378" style="fill:none;stroke:rgb(10,92,185);stroke-width:2" clip-path="url(#clip37)" />
<clipPath id="clip38"><path d="M239,281 L834,281 L834,709 L239,709 Z M245,487 C242.2382813,487 240,489.2382813 240,492 L240,528 C240,530.7617188 242.2382813,533 245,533 L329,533 C331.7617188,533 334,530.7617188 334,528 L334,492 C334,489.2382813 331.7617188,487 329,487 Z M245,487 Z M245,487" /></clipPath>
<path d="M348,510 L348,411 L356,411" style="fill:none;stroke:rgb(10,92,185);stroke-width:2" clip-path="url(#clip38)" />
<clipPath id="clip39"><path d="M239,281 L834,281 L834,709 L239,709 Z M245,487 C242.2382813,487 240,489.2382813 240,492 L240,528 C240,530.7617188 242.2382813,533 245,533 L329,533 C331.7617188,533 334,530.7617188 334,528 L334,492 C334,489.2382813 331.7617188,487 329,487 Z M245,487 Z M245,487" /></clipPath>
<path d="M348,510 L348,444 L356,444" style="fill:none;stroke:rgb(10,92,185);stroke-width:2" clip-path="url(#clip39)" />
<clipPath id="clip40"><path d="M239,281 L834,281 L834,709 L239,709 Z M245,487 C242.2382813,487 240,489.2382813 240,492 L240,528 C240,530.7617188 242.2382813,533 245,533 L329,533 C331.7617188,533 334,530.7617188 334,528 L334,492 C334,489.2382813 331.7617188,487 329,487 Z M245,487 Z M245,487" /></clipPath>
<path d="M348,510 L348,477 L356,477" style="fill:none;stroke:rgb(10,92,185);stroke-width:2" clip-path="url(#clip40)" />
<clipPath id="clip41"><path d="M239,281 L834,281 L834,709 L239,709 Z M245,487 C242.2382813,487 240,489.2382813 240,492 L240,528 C240,530.7617188 242.2382813,533 245,533 L329,533 C331.7617188,533 334,530.7617188 334,528 L334,492 C334,489.2382813 331.7617188,487 329,487 Z M245,487 Z M245,487" /></clipPath>
<path d="M348,510 L356,510" style="fill:none;stroke:rgb(10,92,185);stroke-width:2" clip-path="url(#clip41)" />
<clipPath id="clip42"><path d="M239,281 L834,281 L834,709 L239,709 Z M245,487 C242.2382813,487 240,489.2382813 240,492 L240,528 C240,530.7617188 242.2382813,533 245,533 L329,533 C331.7617188,533 334,530.7617188 334,528 L334,492 C334,489.2382813 331.7617188,487 329,487 Z M245,487 Z M245,487" /></clipPath>
<path d="M348,510 L348,559 L356,559" style="fill:none;stroke:rgb(10,92,185);stroke-width:2" clip-path="url(#clip42)" />
<clipPath id="clip43"><path d="M239,281 L834,281 L834,709 L239,709 Z M245,487 C242.2382813,487 240,489.2382813 240,492 L240,528 C240,530.7617188 242.2382813,533 245,533 L329,533 C331.7617188,533 334,530.7617188 334,528 L334,492 C334,489.2382813 331.7617188,487 329,487 Z M245,487 Z M245,487" /></clipPath>
<path d="M348,510 L348,609 L356,609" style="fill:none;stroke:rgb(10,92,185);stroke-width:2" clip-path="url(#clip43)" />
<clipPath id="clip44"><path d="M239,281 L834,281 L834,709 L239,709 Z M245,487 C242.2382813,487 240,489.2382813 240,492 L240,528 C240,530.7617188 242.2382813,533 245,533 L329,533 C331.7617188,533 334,530.7617188 334,528 L334,492 C334,489.2382813 331.7617188,487 329,487 Z M245,487 Z M245,487" /></clipPath>
<path d="M348,510 L348,642 L356,642" style="fill:none;stroke:rgb(10,92,185);stroke-width:2" clip-path="url(#clip44)" />
<clipPath id="clip45"><path d="M239,281 L834,281 L834,709 L239,709 Z M245,487 C242.2382813,487 240,489.2382813 240,492 L240,528 C240,530.7617188 242.2382813,533 245,533 L329,533 C331.7617188,533 334,530.7617188 334,528 L334,492 C334,489.2382813 331.7617188,487 329,487 Z M245,487 Z M245,487" /></clipPath>
<path d="M348,510 L348,675 L356,675" style="fill:none;stroke:rgb(10,92,185);stroke-width:2" clip-path="url(#clip45)" />
<clipPath id="clip46"><path d="M239,281 L834,281 L834,709 L239,709 Z M245,487 C242.2382813,487 240,489.2382813 240,492 L240,528 C240,530.7617188 242.2382813,533 245,533 L329,533 C331.7617188,533 334,530.7617188 334,528 L334,492 C334,489.2382813 331.7617188,487 329,487 Z M245,487 Z M245,487" /></clipPath>
<path d="M348,510 L348,708 L356,708" style="fill:none;stroke:rgb(10,92,185);stroke-width:2" clip-path="url(#clip46)" />
<clipPath id="clip47"><path d="M238,280 L835,280 L835,710 L238,710 L238,280 Z" /></clipPath>
<path d="M334,510 L348,510" style="fill:none;stroke:rgb(10,92,185);stroke-width:2" clip-path="url(#clip47)" />
<clipPath id="clip48"><path d="M238,485 L337,485 L337,536 L238,536 L238,485 Z" /></clipPath>
<path d="M245,487 C242.2382813,487 240,489.2382813 240,492 L240,528 C240,530.7617188 242.2382813,533 245,533 L329,533 C331.7617188,533 334,530.7617188 334,528 L334,492 C334,489.2382813 331.7617188,487 329,487 Z M245,487" style="fill:rgb(255,255,255);stroke:none" clip-path="url(#clip48)" />
<clipPath id="clip49"><path d="M238,485 L337,485 L337,536 L238,536 L238,485 Z" /></clipPath>
<path d="M245,487 C242.2382813,487 240,489.2382813 240,492 L240,528 C240,530.7617188 242.2382813,533 245,533 L329,533 C331.7617188,533 334,530.7617188 334,528 L334,492 C334,489.2382813 331.7617188,487 329,487 Z M245,487" style="fill:none;stroke:rgb(13,70,170);stroke-width:2" clip-path="url(#clip49)" />
<text x="255" y="511" style="font:14px Dialog">MODEL</text>
<clipPath id="clip50"><path d="M335,504 L348,504 L348,517 L335,517 L335,504 Z" /></clipPath>
<path d="M345.5,510 C345.5,507.515625 343.484375,505.5 341,505.5 C338.515625,505.5 336.5,507.515625 336.5,510 C336.5,512.484375 338.515625,514.5 341,514.5 C343.484375,514.5 345.5,512.484375 345.5,510 Z M345.5,510" style="fill:rgb(250,250,250);stroke:none" clip-path="url(#clip50)" />
<clipPath id="clip51"><path d="M335,504 L348,504 L348,517 L335,517 L335,504 Z" /></clipPath>
<path d="M345.5,510 C345.5,507.515625 343.484375,505.5 341,505.5 C338.515625,505.5 336.5,507.515625 336.5,510 C336.5,512.484375 338.515625,514.5 341,514.5 C343.484375,514.5 345.5,512.484375 345.5,510 Z M345.5,510" style="fill:none;stroke:rgb(10,92,185)" clip-path="url(#clip51)" />
<clipPath id="clip52"><path d="M335,504 L348,504 L348,517 L335,517 L335,504 Z" /></clipPath>
<path d="M339,510 L343,510" style="fill:none;stroke:rgb(150,160,200)" clip-path="url(#clip52)" />
<clipPath id="clip53"><path d="M355,281 L592,281 L592,313 L355,313 Z M356,282 L356,311 L430,311 L430,282 Z M356,282 Z M356,282" /></clipPath>
<path d="M444,312 C444,312 445.7929688,312 448,312 L452,312" style="fill:none;stroke:rgb(10,92,185);stroke-width:2" clip-path="url(#clip53)" />
<clipPath id="clip54"><path d="M354,280 L593,280 L593,314 L354,314 L354,280 Z" /></clipPath>
<path d="M430,312 L444,312" style="fill:none;stroke:rgb(10,92,185);stroke-width:2" clip-path="url(#clip54)" />
<clipPath id="clip55"><path d="M354,280 L433,280 L433,314 L354,314 L354,280 Z" /></clipPath>
<path d="M356,312 L430,312 Z M356,312" style="fill:none;stroke:rgb(10,92,185);stroke-width:2" clip-path="url(#clip55)" />
<text x="367" y="297" style="font:10px Dialog">account</text>
<clipPath id="clip56"><path d="M431,291 L444,291 L444,304 L431,304 L431,291 Z" /></clipPath>
<path d="M441.5,297 C441.5,294.515625 439.484375,292.5 437,292.5 C434.515625,292.5 432.5,294.515625 432.5,297 C432.5,299.484375 434.515625,301.5 437,301.5 C439.484375,301.5 441.5,299.484375 441.5,297 Z M441.5,297" style="fill:rgb(250,250,250);stroke:none" clip-path="url(#clip56)" />
<clipPath id="clip57"><path d="M431,291 L444,291 L444,304 L431,304 L431,291 Z" /></clipPath>
<path d="M441.5,297 C441.5,294.515625 439.484375,292.5 437,292.5 C434.515625,292.5 432.5,294.515625 432.5,297 C432.5,299.484375 434.515625,301.5 437,301.5 C439.484375,301.5 441.5,299.484375 441.5,297 Z M441.5,297" style="fill:none;stroke:rgb(10,92,185)" clip-path="url(#clip57)" />
<clipPath id="clip58"><path d="M431,291 L444,291 L444,304 L431,304 L431,291 Z" /></clipPath>
<path d="M435,297 L439,297" style="fill:none;stroke:rgb(150,160,200)" clip-path="url(#clip58)" />
<clipPath id="clip59"><path d="M450,280 L593,280 L593,314 L450,314 L450,280 Z" /></clipPath>
<path d="M452,312 L590,312 Z M452,312" style="fill:none;stroke:rgb(10,92,185);stroke-width:2" clip-path="url(#clip59)" />
<text x="463" y="297" style="font:10px Dialog">mixed_account.py</text>
<clipPath id="clip60"><path d="M354,313 L835,313 L835,347 L354,347 L354,313 Z" /></clipPath>
<path d="M356,345 L832,345 Z M356,345" style="fill:none;stroke:rgb(10,92,185);stroke-width:2" clip-path="url(#clip60)" />
<text x="367" y="330" style="font:10px Dialog">postion：单只股票持仓信息（包括历史信息）， positions管理postion的字典</text>
<clipPath id="clip61"><path d="M354,346 L488,346 L488,380 L354,380 L354,346 Z" /></clipPath>
<path d="M356,378 L485,378 Z M356,378" style="fill:none;stroke:rgb(10,92,185);stroke-width:2" clip-path="url(#clip61)" />
<text x="367" y="363" style="font:10px Dialog">portfolio组合管理</text>
<clipPath id="clip62"><path d="M354,379 L528,379 L528,413 L354,413 L354,379 Z" /></clipPath>
<path d="M356,411 L525,411 Z M356,411" style="fill:none;stroke:rgb(10,92,185);stroke-width:2" clip-path="url(#clip62)" />
<text x="367" y="396" style="font:10px Dialog">commission.py分红管理</text>
<clipPath id="clip63"><path d="M354,412 L509,412 L509,446 L354,446 L354,412 Z" /></clipPath>
<path d="M356,444 L506,444 Z M356,444" style="fill:none;stroke:rgb(10,92,185);stroke-width:2" clip-path="url(#clip63)" />
<text x="367" y="429" style="font:10px Dialog">slippage.py交易 滑点</text>
<clipPath id="clip64"><path d="M354,445 L473,445 L473,479 L354,479 L354,445 Z" /></clipPath>
<path d="M356,477 L470,477 Z M356,477" style="fill:none;stroke:rgb(10,92,185);stroke-width:2" clip-path="url(#clip64)" />
<text x="367" y="462" style="font:10px Dialog">trade.py交易类</text>
<clipPath id="clip65"><path d="M354,478 L472,478 L472,512 L354,512 L354,478 Z" /></clipPath>
<path d="M356,510 L469,510 Z M356,510" style="fill:none;stroke:rgb(10,92,185);stroke-width:2" clip-path="url(#clip65)" />
<text x="367" y="495" style="font:10px Dialog">order.py订单类</text>
<clipPath id="clip66"><path d="M355,512 L663,512 L663,577 L355,577 Z M356,529 L356,558 L457,558 L457,529 Z M356,529 Z M356,529" /></clipPath>
<path d="M471,559 L471,547 C471,544.7929688 472.7929688,543 475,543 L479,543" style="fill:none;stroke:rgb(10,92,185);stroke-width:2" clip-path="url(#clip66)" />
<clipPath id="clip67"><path d="M355,512 L663,512 L663,577 L355,577 Z M356,529 L356,558 L457,558 L457,529 Z M356,529 Z M356,529" /></clipPath>
<path d="M471,559 L471,572 C471,574.2070313 472.7929688,576 475,576 L479,576" style="fill:none;stroke:rgb(10,92,185);stroke-width:2" clip-path="url(#clip67)" />
<clipPath id="clip68"><path d="M354,511 L664,511 L664,578 L354,578 L354,511 Z" /></clipPath>
<path d="M457,559 L471,559" style="fill:none;stroke:rgb(10,92,185);stroke-width:2" clip-path="url(#clip68)" />
<clipPath id="clip69"><path d="M354,527 L460,527 L460,561 L354,561 L354,527 Z" /></clipPath>
<path d="M356,559 L457,559 Z M356,559" style="fill:none;stroke:rgb(10,92,185);stroke-width:2" clip-path="url(#clip69)" />
<text x="367" y="544" style="font:10px Dialog">交易费用管理</text>
<clipPath id="clip70"><path d="M458,538 L471,538 L471,551 L458,551 L458,538 Z" /></clipPath>
<path d="M468.5,544 C468.5,541.515625 466.484375,539.5 464,539.5 C461.515625,539.5 459.5,541.515625 459.5,544 C459.5,546.484375 461.515625,548.5 464,548.5 C466.484375,548.5 468.5,546.484375 468.5,544 Z M468.5,544" style="fill:rgb(250,250,250);stroke:none" clip-path="url(#clip70)" />
<clipPath id="clip71"><path d="M458,538 L471,538 L471,551 L458,551 L458,538 Z" /></clipPath>
<path d="M468.5,544 C468.5,541.515625 466.484375,539.5 464,539.5 C461.515625,539.5 459.5,541.515625 459.5,544 C459.5,546.484375 461.515625,548.5 464,548.5 C466.484375,548.5 468.5,546.484375 468.5,544 Z M468.5,544" style="fill:none;stroke:rgb(10,92,185)" clip-path="url(#clip71)" />
<clipPath id="clip72"><path d="M458,538 L471,538 L471,551 L458,551 L458,538 Z" /></clipPath>
<path d="M462,544 L466,544" style="fill:none;stroke:rgb(150,160,200)" clip-path="url(#clip72)" />
<clipPath id="clip73"><path d="M477,511 L664,511 L664,545 L477,545 L477,511 Z" /></clipPath>
<path d="M479,543 L661,543 Z M479,543" style="fill:none;stroke:rgb(10,92,185);stroke-width:2" clip-path="url(#clip73)" />
<text x="490" y="528" style="font:10px Dialog">commission.py交易手续费</text>
<clipPath id="clip74"><path d="M477,544 L557,544 L557,578 L477,578 L477,544 Z" /></clipPath>
<path d="M479,576 L554,576 Z M479,576" style="fill:none;stroke:rgb(10,92,185);stroke-width:2" clip-path="url(#clip74)" />
<text x="490" y="561" style="font:10px Dialog">tax.py税</text>
<clipPath id="clip75"><path d="M354,577 L421,577 L421,611 L354,611 L354,577 Z" /></clipPath>
<path d="M356,609 L418,609 Z M356,609" style="fill:none;stroke:rgb(10,92,185);stroke-width:2" clip-path="url(#clip75)" />
<text x="367" y="594" style="font:10px Dialog">bar.py</text>
<clipPath id="clip76"><path d="M354,610 L424,610 L424,644 L354,644 L354,610 Z" /></clipPath>
<path d="M356,642 L421,642 Z M356,642" style="fill:none;stroke:rgb(10,92,185);stroke-width:2" clip-path="url(#clip76)" />
<text x="367" y="627" style="font:10px Dialog">tick.py</text>
<clipPath id="clip77"><path d="M354,643 L458,643 L458,677 L354,677 L354,643 Z" /></clipPath>
<path d="M356,675 L455,675 Z M356,675" style="fill:none;stroke:rgb(10,92,185);stroke-width:2" clip-path="url(#clip77)" />
<text x="367" y="660" style="font:10px Dialog">snapshot.py</text>
<clipPath id="clip78"><path d="M354,676 L469,676 L469,710 L354,710 L354,676 Z" /></clipPath>
<path d="M356,708 L466,708 Z M356,708" style="fill:none;stroke:rgb(10,92,185);stroke-width:2" clip-path="url(#clip78)" />
<text x="367" y="692" style="font:10px Dialog">instrument.py</text>
<clipPath id="clip79"><path d="M239,719 L722,719 L722,982 L239,982 Z M245,875 C242.2382813,875 240,877.2382813 240,880 L240,916 C240,918.7617188 242.2382813,921 245,921 L310,921 C312.7617188,921 315,918.7617188 315,916 L315,880 C315,877.2382813 312.7617188,875 310,875 Z M245,875 Z M245,875" /></clipPath>
<path d="M329,898 L329,832 L337,832" style="fill:none;stroke:rgb(10,92,185);stroke-width:2" clip-path="url(#clip79)" />
<clipPath id="clip80"><path d="M239,719 L722,719 L722,982 L239,982 Z M245,875 C242.2382813,875 240,877.2382813 240,880 L240,916 C240,918.7617188 242.2382813,921 245,921 L310,921 C312.7617188,921 315,918.7617188 315,916 L315,880 C315,877.2382813 312.7617188,875 310,875 Z M245,875 Z M245,875" /></clipPath>
<path d="M329,898 L329,964 L337,964" style="fill:none;stroke:rgb(10,92,185);stroke-width:2" clip-path="url(#clip80)" />
<clipPath id="clip81"><path d="M238,718 L723,718 L723,983 L238,983 L238,718 Z" /></clipPath>
<path d="M315,898 L329,898" style="fill:none;stroke:rgb(10,92,185);stroke-width:2" clip-path="url(#clip81)" />
<clipPath id="clip82"><path d="M238,873 L318,873 L318,924 L238,924 L238,873 Z" /></clipPath>
<path d="M245,875 C242.2382813,875 240,877.2382813 240,880 L240,916 C240,918.7617188 242.2382813,921 245,921 L310,921 C312.7617188,921 315,918.7617188 315,916 L315,880 C315,877.2382813 312.7617188,875 310,875 Z M245,875" style="fill:rgb(255,255,255);stroke:none" clip-path="url(#clip82)" />
<clipPath id="clip83"><path d="M238,873 L318,873 L318,924 L238,924 L238,873 Z" /></clipPath>
<path d="M245,875 C242.2382813,875 240,877.2382813 240,880 L240,916 C240,918.7617188 242.2382813,921 245,921 L310,921 C312.7617188,921 315,918.7617188 315,916 L315,880 C315,877.2382813 312.7617188,875 310,875 Z M245,875" style="fill:none;stroke:rgb(13,70,170);stroke-width:2" clip-path="url(#clip83)" />
<text x="255" y="898" style="font:14px Dialog">DATA</text>
<clipPath id="clip84"><path d="M316,892 L329,892 L329,905 L316,905 L316,892 Z" /></clipPath>
<path d="M326.5,898 C326.5,895.515625 324.484375,893.5 322,893.5 C319.515625,893.5 317.5,895.515625 317.5,898 C317.5,900.484375 319.515625,902.5 322,902.5 C324.484375,902.5 326.5,900.484375 326.5,898 Z M326.5,898" style="fill:rgb(250,250,250);stroke:none" clip-path="url(#clip84)" />
<clipPath id="clip85"><path d="M316,892 L329,892 L329,905 L316,905 L316,892 Z" /></clipPath>
<path d="M326.5,898 C326.5,895.515625 324.484375,893.5 322,893.5 C319.515625,893.5 317.5,895.515625 317.5,898 C317.5,900.484375 319.515625,902.5 322,902.5 C324.484375,902.5 326.5,900.484375 326.5,898 Z M326.5,898" style="fill:none;stroke:rgb(10,92,185)" clip-path="url(#clip85)" />
<clipPath id="clip86"><path d="M316,892 L329,892 L329,905 L316,905 L316,892 Z" /></clipPath>
<path d="M320,898 L324,898" style="fill:none;stroke:rgb(150,160,200)" clip-path="url(#clip86)" />
<clipPath id="clip87"><path d="M336,719 L722,719 L722,916 L336,916 Z M337,802 L337,831 L512,831 L512,802 Z M337,802 Z M337,802" /></clipPath>
<path d="M526,832 L526,754 C526,751.7929688 527.7929688,750 530,750 L534,750" style="fill:none;stroke:rgb(10,92,185);stroke-width:2" clip-path="url(#clip87)" />
<clipPath id="clip88"><path d="M336,719 L722,719 L722,916 L336,916 Z M337,802 L337,831 L512,831 L512,802 Z M337,802 Z M337,802" /></clipPath>
<path d="M526,832 L526,787 C526,784.7929688 527.7929688,783 530,783 L534,783" style="fill:none;stroke:rgb(10,92,185);stroke-width:2" clip-path="url(#clip88)" />
<clipPath id="clip89"><path d="M336,719 L722,719 L722,916 L336,916 Z M337,802 L337,831 L512,831 L512,802 Z M337,802 Z M337,802" /></clipPath>
<path d="M526,832 L526,820 C526,817.7929688 527.7929688,816 530,816 L534,816" style="fill:none;stroke:rgb(10,92,185);stroke-width:2" clip-path="url(#clip89)" />
<clipPath id="clip90"><path d="M336,719 L722,719 L722,916 L336,916 Z M337,802 L337,831 L512,831 L512,802 Z M337,802 Z M337,802" /></clipPath>
<path d="M526,832 L526,845 C526,847.2070313 527.7929688,849 530,849 L534,849" style="fill:none;stroke:rgb(10,92,185);stroke-width:2" clip-path="url(#clip90)" />
<clipPath id="clip91"><path d="M336,719 L722,719 L722,916 L336,916 Z M337,802 L337,831 L512,831 L512,802 Z M337,802 Z M337,802" /></clipPath>
<path d="M526,832 L526,878 C526,880.2070313 527.7929688,882 530,882 L534,882" style="fill:none;stroke:rgb(10,92,185);stroke-width:2" clip-path="url(#clip91)" />
<clipPath id="clip92"><path d="M336,719 L722,719 L722,916 L336,916 Z M337,802 L337,831 L512,831 L512,802 Z M337,802 Z M337,802" /></clipPath>
<path d="M526,832 L526,911 C526,913.2070313 527.7929688,915 530,915 L534,915" style="fill:none;stroke:rgb(10,92,185);stroke-width:2" clip-path="url(#clip92)" />
<clipPath id="clip93"><path d="M335,718 L723,718 L723,917 L335,917 L335,718 Z" /></clipPath>
<path d="M512,832 L526,832" style="fill:none;stroke:rgb(10,92,185);stroke-width:2" clip-path="url(#clip93)" />
<clipPath id="clip94"><path d="M335,800 L515,800 L515,834 L335,834 L335,800 Z" /></clipPath>
<path d="M337,832 L512,832 Z M337,832" style="fill:none;stroke:rgb(10,92,185);stroke-width:2" clip-path="url(#clip94)" />
<text x="348" y="816" style="font:10px Dialog">base_data_source数据源</text>
<clipPath id="clip95"><path d="M513,811 L526,811 L526,824 L513,824 L513,811 Z" /></clipPath>
<path d="M523.5,817 C523.5,814.515625 521.484375,812.5 519,812.5 C516.515625,812.5 514.5,814.515625 514.5,817 C514.5,819.484375 516.515625,821.5 519,821.5 C521.484375,821.5 523.5,819.484375 523.5,817 Z M523.5,817" style="fill:rgb(250,250,250);stroke:none" clip-path="url(#clip95)" />
<clipPath id="clip96"><path d="M513,811 L526,811 L526,824 L513,824 L513,811 Z" /></clipPath>
<path d="M523.5,817 C523.5,814.515625 521.484375,812.5 519,812.5 C516.515625,812.5 514.5,814.515625 514.5,817 C514.5,819.484375 516.515625,821.5 519,821.5 C521.484375,821.5 523.5,819.484375 523.5,817 Z M523.5,817" style="fill:none;stroke:rgb(10,92,185)" clip-path="url(#clip96)" />
<clipPath id="clip97"><path d="M513,811 L526,811 L526,824 L513,824 L513,811 Z" /></clipPath>
<path d="M517,817 L521,817" style="fill:none;stroke:rgb(150,160,200)" clip-path="url(#clip97)" />
<clipPath id="clip98"><path d="M532,718 L694,718 L694,752 L532,752 L532,718 Z" /></clipPath>
<path d="M534,750 L691,750 Z M534,750" style="fill:none;stroke:rgb(10,92,185);stroke-width:2" clip-path="url(#clip98)" />
<text x="545" y="734" style="font:10px Dialog">coverter.py数据预处理</text>
<clipPath id="clip99"><path d="M532,751 L713,751 L713,785 L532,785 L532,751 Z" /></clipPath>
<path d="M534,783 L710,783 Z M534,783" style="fill:none;stroke:rgb(10,92,185);stroke-width:2" clip-path="url(#clip99)" />
<text x="545" y="767" style="font:10px Dialog">daybar_store.py日线数据</text>
<clipPath id="clip100"><path d="M532,784 L723,784 L723,818 L532,818 L532,784 Z" /></clipPath>
<path d="M534,816 L720,816 Z M534,816" style="fill:none;stroke:rgb(10,92,185);stroke-width:2" clip-path="url(#clip100)" />
<text x="545" y="800" style="font:10px Dialog">dividend_store.py分红数据</text>
<clipPath id="clip101"><path d="M532,817 L685,817 L685,851 L532,851 L532,817 Z" /></clipPath>
<path d="M534,849 L682,849 Z M534,849" style="fill:none;stroke:rgb(10,92,185);stroke-width:2" clip-path="url(#clip101)" />
<text x="545" y="833" style="font:10px Dialog">instrument_store.py</text>
<clipPath id="clip102"><path d="M532,850 L704,850 L704,884 L532,884 L532,850 Z" /></clipPath>
<path d="M534,882 L701,882 Z M534,882" style="fill:none;stroke:rgb(10,92,185);stroke-width:2" clip-path="url(#clip102)" />
<text x="545" y="866" style="font:10px Dialog">trading_dates_store.py</text>
<clipPath id="clip103"><path d="M532,883 L688,883 L688,917 L532,917 L532,883 Z" /></clipPath>
<path d="M534,915 L685,915 Z M534,915" style="fill:none;stroke:rgb(10,92,185);stroke-width:2" clip-path="url(#clip103)" />
<text x="545" y="899" style="font:10px Dialog">yield_curve_store.py</text>
<clipPath id="clip104"><path d="M336,917 L626,917 L626,982 L336,982 Z M337,934 L337,963 L431,963 L431,934 Z M337,934 Z M337,934" /></clipPath>
<path d="M445,964 L445,952 C445,949.7929688 446.7929688,948 449,948 L453,948" style="fill:none;stroke:rgb(10,92,185);stroke-width:2" clip-path="url(#clip104)" />
<clipPath id="clip105"><path d="M336,917 L626,917 L626,982 L336,982 Z M337,934 L337,963 L431,963 L431,934 Z M337,934 Z M337,934" /></clipPath>
<path d="M445,964 L445,977 C445,979.2070313 446.7929688,981 449,981 L453,981" style="fill:none;stroke:rgb(10,92,185);stroke-width:2" clip-path="url(#clip105)" />
<clipPath id="clip106"><path d="M335,916 L627,916 L627,983 L335,983 L335,916 Z" /></clipPath>
<path d="M431,964 L445,964" style="fill:none;stroke:rgb(10,92,185);stroke-width:2" clip-path="url(#clip106)" />
<clipPath id="clip107"><path d="M335,932 L434,932 L434,966 L335,966 L335,932 Z" /></clipPath>
<path d="M337,964 L431,964 Z M337,964" style="fill:none;stroke:rgb(10,92,185);stroke-width:2" clip-path="url(#clip107)" />
<text x="348" y="948" style="font:10px Dialog">data_proxy</text>
<clipPath id="clip108"><path d="M432,943 L445,943 L445,956 L432,956 L432,943 Z" /></clipPath>
<path d="M442.5,949 C442.5,946.515625 440.484375,944.5 438,944.5 C435.515625,944.5 433.5,946.515625 433.5,949 C433.5,951.484375 435.515625,953.5 438,953.5 C440.484375,953.5 442.5,951.484375 442.5,949 Z M442.5,949" style="fill:rgb(250,250,250);stroke:none" clip-path="url(#clip108)" />
<clipPath id="clip109"><path d="M432,943 L445,943 L445,956 L432,956 L432,943 Z" /></clipPath>
<path d="M442.5,949 C442.5,946.515625 440.484375,944.5 438,944.5 C435.515625,944.5 433.5,946.515625 433.5,949 C433.5,951.484375 435.515625,953.5 438,953.5 C440.484375,953.5 442.5,951.484375 442.5,949 Z M442.5,949" style="fill:none;stroke:rgb(10,92,185)" clip-path="url(#clip109)" />
<clipPath id="clip110"><path d="M432,943 L445,943 L445,956 L432,956 L432,943 Z" /></clipPath>
<path d="M436,949 L440,949" style="fill:none;stroke:rgb(150,160,200)" clip-path="url(#clip110)" />
<clipPath id="clip111"><path d="M451,916 L608,916 L608,950 L451,950 L451,916 Z" /></clipPath>
<path d="M453,948 L605,948 Z M453,948" style="fill:none;stroke:rgb(10,92,185);stroke-width:2" clip-path="url(#clip111)" />
<text x="464" y="932" style="font:10px Dialog">instrument_mixin.py</text>
<clipPath id="clip112"><path d="M451,949 L627,949 L627,983 L451,983 L451,949 Z" /></clipPath>
<path d="M453,981 L624,981 Z M453,981" style="fill:none;stroke:rgb(10,92,185);stroke-width:2" clip-path="url(#clip112)" />
<text x="464" y="965" style="font:10px Dialog">trading_dates_mixin.py</text>
<clipPath id="clip113"><path d="M239,992 L748,992 L748,1222 L239,1222 Z M245,1099 C242.2382813,1099 240,1101.2382813 240,1104 L240,1140 C240,1142.7617188 242.2382813,1145 245,1145 L308,1145 C310.7617188,1145 313,1142.7617188 313,1140 L313,1104 C313,1101.2382813 310.7617188,1099 308,1099 Z M245,1099 Z M245,1099" /></clipPath>
<path d="M327,1122 L327,1023 L335,1023" style="fill:none;stroke:rgb(10,92,185);stroke-width:2" clip-path="url(#clip113)" />
<clipPath id="clip114"><path d="M239,992 L748,992 L748,1222 L239,1222 Z M245,1099 C242.2382813,1099 240,1101.2382813 240,1104 L240,1140 C240,1142.7617188 242.2382813,1145 245,1145 L308,1145 C310.7617188,1145 313,1142.7617188 313,1140 L313,1104 C313,1101.2382813 310.7617188,1099 308,1099 Z M245,1099 Z M245,1099" /></clipPath>
<path d="M327,1122 L327,1056 L335,1056" style="fill:none;stroke:rgb(10,92,185);stroke-width:2" clip-path="url(#clip114)" />
<clipPath id="clip115"><path d="M239,992 L748,992 L748,1222 L239,1222 Z M245,1099 C242.2382813,1099 240,1101.2382813 240,1104 L240,1140 C240,1142.7617188 242.2382813,1145 245,1145 L308,1145 C310.7617188,1145 313,1142.7617188 313,1140 L313,1104 C313,1101.2382813 310.7617188,1099 308,1099 Z M245,1099 Z M245,1099" /></clipPath>
<path d="M327,1122 L327,1089 L335,1089" style="fill:none;stroke:rgb(10,92,185);stroke-width:2" clip-path="url(#clip115)" />
<clipPath id="clip116"><path d="M239,992 L748,992 L748,1222 L239,1222 Z M245,1099 C242.2382813,1099 240,1101.2382813 240,1104 L240,1140 C240,1142.7617188 242.2382813,1145 245,1145 L308,1145 C310.7617188,1145 313,1142.7617188 313,1140 L313,1104 C313,1101.2382813 310.7617188,1099 308,1099 Z M245,1099 Z M245,1099" /></clipPath>
<path d="M327,1122 L335,1122" style="fill:none;stroke:rgb(10,92,185);stroke-width:2" clip-path="url(#clip116)" />
<clipPath id="clip117"><path d="M239,992 L748,992 L748,1222 L239,1222 Z M245,1099 C242.2382813,1099 240,1101.2382813 240,1104 L240,1140 C240,1142.7617188 242.2382813,1145 245,1145 L308,1145 C310.7617188,1145 313,1142.7617188 313,1140 L313,1104 C313,1101.2382813 310.7617188,1099 308,1099 Z M245,1099 Z M245,1099" /></clipPath>
<path d="M327,1122 L327,1155 L335,1155" style="fill:none;stroke:rgb(10,92,185);stroke-width:2" clip-path="url(#clip117)" />
<clipPath id="clip118"><path d="M239,992 L748,992 L748,1222 L239,1222 Z M245,1099 C242.2382813,1099 240,1101.2382813 240,1104 L240,1140 C240,1142.7617188 242.2382813,1145 245,1145 L308,1145 C310.7617188,1145 313,1142.7617188 313,1140 L313,1104 C313,1101.2382813 310.7617188,1099 308,1099 Z M245,1099 Z M245,1099" /></clipPath>
<path d="M327,1122 L327,1188 L335,1188" style="fill:none;stroke:rgb(10,92,185);stroke-width:2" clip-path="url(#clip118)" />
<clipPath id="clip119"><path d="M239,992 L748,992 L748,1222 L239,1222 Z M245,1099 C242.2382813,1099 240,1101.2382813 240,1104 L240,1140 C240,1142.7617188 242.2382813,1145 245,1145 L308,1145 C310.7617188,1145 313,1142.7617188 313,1140 L313,1104 C313,1101.2382813 310.7617188,1099 308,1099 Z M245,1099 Z M245,1099" /></clipPath>
<path d="M327,1122 L327,1221 L335,1221" style="fill:none;stroke:rgb(10,92,185);stroke-width:2" clip-path="url(#clip119)" />
<clipPath id="clip120"><path d="M238,991 L749,991 L749,1223 L238,1223 L238,991 Z" /></clipPath>
<path d="M313,1122 L327,1122" style="fill:none;stroke:rgb(10,92,185);stroke-width:2" clip-path="url(#clip120)" />
<clipPath id="clip121"><path d="M238,1097 L316,1097 L316,1148 L238,1148 L238,1097 Z" /></clipPath>
<path d="M245,1099 C242.2382813,1099 240,1101.2382813 240,1104 L240,1140 C240,1142.7617188 242.2382813,1145 245,1145 L308,1145 C310.7617188,1145 313,1142.7617188 313,1140 L313,1104 C313,1101.2382813 310.7617188,1099 308,1099 Z M245,1099" style="fill:rgb(255,255,255);stroke:none" clip-path="url(#clip121)" />
<clipPath id="clip122"><path d="M238,1097 L316,1097 L316,1148 L238,1148 L238,1097 Z" /></clipPath>
<path d="M245,1099 C242.2382813,1099 240,1101.2382813 240,1104 L240,1140 C240,1142.7617188 242.2382813,1145 245,1145 L308,1145 C310.7617188,1145 313,1142.7617188 313,1140 L313,1104 C313,1101.2382813 310.7617188,1099 308,1099 Z M245,1099" style="fill:none;stroke:rgb(13,70,170);stroke-width:2" clip-path="url(#clip122)" />
<text x="255" y="1122" style="font:14px Dialog">MOD</text>
<clipPath id="clip123"><path d="M314,1116 L327,1116 L327,1129 L314,1129 L314,1116 Z" /></clipPath>
<path d="M324.5,1122 C324.5,1119.515625 322.484375,1117.5 320,1117.5 C317.515625,1117.5 315.5,1119.515625 315.5,1122 C315.5,1124.484375 317.515625,1126.5 320,1126.5 C322.484375,1126.5 324.5,1124.484375 324.5,1122 Z M324.5,1122" style="fill:rgb(250,250,250);stroke:none" clip-path="url(#clip123)" />
<clipPath id="clip124"><path d="M314,1116 L327,1116 L327,1129 L314,1129 L314,1116 Z" /></clipPath>
<path d="M324.5,1122 C324.5,1119.515625 322.484375,1117.5 320,1117.5 C317.515625,1117.5 315.5,1119.515625 315.5,1122 C315.5,1124.484375 317.515625,1126.5 320,1126.5 C322.484375,1126.5 324.5,1124.484375 324.5,1122 Z M324.5,1122" style="fill:none;stroke:rgb(10,92,185)" clip-path="url(#clip124)" />
<clipPath id="clip125"><path d="M314,1116 L327,1116 L327,1129 L314,1129 L314,1116 Z" /></clipPath>
<path d="M318,1122 L322,1122" style="fill:none;stroke:rgb(150,160,200)" clip-path="url(#clip125)" />
<clipPath id="clip126"><path d="M333,991 L479,991 L479,1025 L333,1025 L333,991 Z" /></clipPath>
<path d="M335,1023 L476,1023 Z M335,1023" style="fill:none;stroke:rgb(10,92,185);stroke-width:2" clip-path="url(#clip126)" />
<text x="346" y="1007" style="font:10px Dialog">analyser策略分析器</text>
<clipPath id="clip127"><path d="M333,1024 L428,1024 L428,1058 L333,1058 L333,1024 Z" /></clipPath>
<path d="M335,1056 L425,1056 Z M335,1056" style="fill:none;stroke:rgb(10,92,185);stroke-width:2" clip-path="url(#clip127)" />
<text x="346" y="1040" style="font:10px Dialog">funcat_api</text>
<clipPath id="clip128"><path d="M333,1057 L479,1057 L479,1091 L333,1091 L333,1057 Z" /></clipPath>
<path d="M335,1089 L476,1089 Z M335,1089" style="fill:none;stroke:rgb(10,92,185);stroke-width:2" clip-path="url(#clip128)" />
<text x="346" y="1073" style="font:10px Dialog">progress回测进度条</text>
<clipPath id="clip129"><path d="M333,1090 L658,1090 L658,1124 L333,1124 L333,1090 Z" /></clipPath>
<path d="M335,1122 L655,1122 Z M335,1122" style="fill:none;stroke:rgb(10,92,185);stroke-width:2" clip-path="url(#clip129)" />
<text x="346" y="1106" style="font:10px Dialog">progressive_output_csv将收益等信息步进写入csv</text>
<clipPath id="clip130"><path d="M333,1123 L498,1123 L498,1157 L333,1157 L333,1123 Z" /></clipPath>
<path d="M335,1155 L495,1155 Z M335,1155" style="fill:none;stroke:rgb(10,92,185);stroke-width:2" clip-path="url(#clip130)" />
<text x="346" y="1139" style="font:10px Dialog">risk_manager风险管理</text>
<clipPath id="clip131"><path d="M333,1156 L749,1156 L749,1190 L333,1190 L333,1156 Z" /></clipPath>
<path d="M335,1188 L746,1188 Z M335,1188" style="fill:none;stroke:rgb(10,92,185);stroke-width:2" clip-path="url(#clip131)" />
<text x="346" y="1172" style="font:10px Dialog">simple_stock_realtime_trade基于tushare的实时行情事件/数据源</text>
<clipPath id="clip132"><path d="M333,1189 L688,1189 L688,1223 L333,1223 L333,1189 Z" /></clipPath>
<path d="M335,1221 L685,1221 Z M335,1221" style="fill:none;stroke:rgb(10,92,185);stroke-width:2" clip-path="url(#clip132)" />
<text x="346" y="1205" style="font:10px Dialog">simulation回测事件源、模拟券商实现（用于模拟交易）</text>
<clipPath id="clip133"><path d="M238,1231 L767,1231 L767,1310 L238,1310 L238,1231 Z" /></clipPath>
<path d="M245,1233 C242.2382813,1233 240,1235.2382813 240,1238 L240,1302 C240,1304.7617188 242.2382813,1307 245,1307 L759,1307 C761.7617188,1307 764,1304.7617188 764,1302 L764,1238 C764,1235.2382813 761.7617188,1233 759,1233 Z M245,1233" style="fill:rgb(255,255,255);stroke:none" clip-path="url(#clip133)" />
<clipPath id="clip134"><path d="M238,1231 L767,1231 L767,1310 L238,1310 L238,1231 Z" /></clipPath>
<path d="M245,1233 C242.2382813,1233 240,1235.2382813 240,1238 L240,1302 C240,1304.7617188 242.2382813,1307 245,1307 L759,1307 C761.7617188,1307 764,1304.7617188 764,1302 L764,1238 C764,1235.2382813 761.7617188,1233 759,1233 Z M245,1233" style="fill:none;stroke:rgb(13,70,170);stroke-width:2" clip-path="url(#clip134)" />
<text x="255" y="1256" style="font:14px Dialog">API，提供策略开发API，包括提交订单，获取合约历史信息</text>
<text x="255" y="1284" style="font:14px Dialog">等</text>
</svg>
