<?xml version="1.0" encoding="UTF-8"?>
<!DOCTYPE svg PUBLIC "-//W3C//DTD SVG 1.1//EN" "http://www.w3.org/Graphics/SVG/1.1/DTD/svg11.dtd">
<svg version="1.2" xmlns="http://www.w3.org/2000/svg" xmlns:xlink="http://www.w3.org/1999/xlink" x="0" y="0" width="2790" height="870" viewBox="0 0 2790 870">
<style type="text/css"><![CDATA[
text { font:12px Dialog; }
]]></style>
<rect x="-485" y="-485" width="3760" height="1840" style="fill:rgb(255,255,255);stroke:none" />
<clipPath id="clip1"><path d="M15,15 L2775,15 L2775,855 L15,855 Z M1744,347 C1739.5820313,347 1736,350.5820313 1736,355 L1736,415 C1736,419.4179688 1739.5820313,423 1744,423 L1977,423 C1981.4179688,423 1985,419.4179688 1985,415 L1985,355 C1985,350.5820313 1981.4179688,347 1977,347 Z M1744,347 Z M1744,347" /></clipPath>
<path d="M1842.5625,347 C1814.6601563,169.6679688 1772.8046875,81 1717,81" style="fill:none;stroke:rgb(10,92,185);stroke-width:2" clip-path="url(#clip1)" />
<clipPath id="clip2"><path d="M15,15 L2775,15 L2775,855 L15,855 Z M1744,347 C1739.5820313,347 1736,350.5820313 1736,355 L1736,415 C1736,419.4179688 1739.5820313,423 1744,423 L1977,423 C1981.4179688,423 1985,419.4179688 1985,415 L1985,355 C1985,350.5820313 1981.4179688,347 1977,347 Z M1744,347 Z M1744,347" /></clipPath>
<path d="M1736,382.3007813 C1722.6679688,381.4335938 1702.6679688,381 1676,381" style="fill:none;stroke:rgb(10,92,185);stroke-width:2" clip-path="url(#clip2)" />
<clipPath id="clip3"><path d="M15,15 L2775,15 L2775,855 L15,855 Z M1744,347 C1739.5820313,347 1736,350.5820313 1736,355 L1736,415 C1736,419.4179688 1739.5820313,423 1744,423 L1977,423 C1981.4179688,423 1985,419.4179688 1985,415 L1985,355 C1985,350.5820313 1981.4179688,347 1977,347 Z M1744,347 Z M1744,347" /></clipPath>
<path d="M1809.03125,423 C1780.1367188,487 1736.7929688,519 1679,519" style="fill:none;stroke:rgb(10,92,185);stroke-width:2" clip-path="url(#clip3)" />
<clipPath id="clip4"><path d="M15,15 L2775,15 L2775,855 L15,855 Z M1744,347 C1739.5820313,347 1736,350.5820313 1736,355 L1736,415 C1736,419.4179688 1739.5820313,423 1744,423 L1977,423 C1981.4179688,423 1985,419.4179688 1985,415 L1985,355 C1985,350.5820313 1981.4179688,347 1977,347 Z M1744,347 Z M1744,347" /></clipPath>
<path d="M1831.3046875,423 C1800.5703125,543 1754.46875,603 1693,603" style="fill:none;stroke:rgb(10,92,185);stroke-width:2" clip-path="url(#clip4)" />
<clipPath id="clip5"><path d="M15,15 L2775,15 L2775,855 L15,855 Z M1744,347 C1739.5820313,347 1736,350.5820313 1736,355 L1736,415 C1736,419.4179688 1739.5820313,423 1744,423 L1977,423 C1981.4179688,423 1985,419.4179688 1985,415 L1985,355 C1985,350.5820313 1981.4179688,347 1977,347 Z M1744,347 Z M1744,347" /></clipPath>
<path d="M1843.4179688,423 C1815.546875,609 1773.7421875,702 1718,702" style="fill:none;stroke:rgb(10,92,185);stroke-width:2" clip-path="url(#clip5)" />
<clipPath id="clip6"><path d="M15,15 L2775,15 L2775,855 L15,855 Z M1744,347 C1739.5820313,347 1736,350.5820313 1736,355 L1736,415 C1736,419.4179688 1739.5820313,423 1744,423 L1977,423 C1981.4179688,423 1985,419.4179688 1985,415 L1985,355 C1985,350.5820313 1981.4179688,347 1977,347 Z M1744,347 Z M1744,347" /></clipPath>
<path d="M1873.9570313,423 C1899.3007813,637.6679688 1937.3164063,745 1988,745" style="fill:none;stroke:rgb(10,92,185);stroke-width:2" clip-path="url(#clip6)" />
<clipPath id="clip7"><path d="M15,15 L2775,15 L2775,855 L15,855 Z M1744,347 C1739.5820313,347 1736,350.5820313 1736,355 L1736,415 C1736,419.4179688 1739.5820313,423 1744,423 L1977,423 C1981.4179688,423 1985,419.4179688 1985,415 L1985,355 C1985,350.5820313 1981.4179688,347 1977,347 Z M1744,347 Z M1744,347" /></clipPath>
<path d="M1907.8046875,423 C1937.4023438,494.3320313 1981.8007813,530 2041,530" style="fill:none;stroke:rgb(10,92,185);stroke-width:2" clip-path="url(#clip7)" />
<clipPath id="clip8"><path d="M15,15 L2775,15 L2775,855 L15,855 Z M1744,347 C1739.5820313,347 1736,350.5820313 1736,355 L1736,415 C1736,419.4179688 1739.5820313,423 1744,423 L1977,423 C1981.4179688,423 1985,419.4179688 1985,415 L1985,355 C1985,350.5820313 1981.4179688,347 1977,347 Z M1744,347 Z M1744,347" /></clipPath>
<path d="M1985,394.9609375 C1999,398.3203125 2020,400 2048,400" style="fill:none;stroke:rgb(10,92,185);stroke-width:2" clip-path="url(#clip8)" />
<clipPath id="clip9"><path d="M15,15 L2775,15 L2775,855 L15,855 Z M1744,347 C1739.5820313,347 1736,350.5820313 1736,355 L1736,415 C1736,419.4179688 1739.5820313,423 1744,423 L1977,423 C1981.4179688,423 1985,419.4179688 1985,415 L1985,355 C1985,350.5820313 1981.4179688,347 1977,347 Z M1744,347 Z M1744,347" /></clipPath>
<path d="M1942.9804688,347 C1965.6523438,315.6679688 1999.6601563,300 2045,300" style="fill:none;stroke:rgb(10,92,185);stroke-width:2" clip-path="url(#clip9)" />
<clipPath id="clip10"><path d="M15,15 L2775,15 L2775,855 L15,855 Z M1744,347 C1739.5820313,347 1736,350.5820313 1736,355 L1736,415 C1736,419.4179688 1739.5820313,423 1744,423 L1977,423 C1981.4179688,423 1985,419.4179688 1985,415 L1985,355 C1985,350.5820313 1981.4179688,347 1977,347 Z M1744,347 Z M1744,347" /></clipPath>
<path d="M1899.96875,347 C1929.9765625,260.3320313 1974.9882813,217 2035,217" style="fill:none;stroke:rgb(10,92,185);stroke-width:2" clip-path="url(#clip10)" />
<clipPath id="clip11"><path d="M15,15 L2775,15 L2775,855 L15,855 Z M1744,347 C1739.5820313,347 1736,350.5820313 1736,355 L1736,415 C1736,419.4179688 1739.5820313,423 1744,423 L1977,423 C1981.4179688,423 1985,419.4179688 1985,415 L1985,355 C1985,350.5820313 1981.4179688,347 1977,347 Z M1744,347 Z M1744,347" /></clipPath>
<path d="M1882.6328125,347 C1912.2695313,194.3320313 1956.7265625,118 2016,118" style="fill:none;stroke:rgb(10,92,185);stroke-width:2" clip-path="url(#clip11)" />
<clipPath id="clip12"><path d="M15,15 L2775,15 L2775,855 L15,855 Z M1744,347 C1739.5820313,347 1736,350.5820313 1736,355 L1736,415 C1736,419.4179688 1739.5820313,423 1744,423 L1977,423 C1981.4179688,423 1985,419.4179688 1985,415 L1985,355 C1985,350.5820313 1981.4179688,347 1977,347 Z M1744,347 Z M1744,347" /></clipPath>
<path d="M1874.5039063,347 C1899.7265625,141.6679688 1937.5585938,39 1988,39" style="fill:none;stroke:rgb(10,92,185);stroke-width:2" clip-path="url(#clip12)" />
<clipPath id="clip13"><path d="M1733,344 L1989,344 L1989,427 L1733,427 L1733,344 Z" /></clipPath>
<path d="M1744,347 C1739.5820313,347 1736,350.5820313 1736,355 L1736,415 C1736,419.4179688 1739.5820313,423 1744,423 L1977,423 C1981.4179688,423 1985,419.4179688 1985,415 L1985,355 C1985,350.5820313 1981.4179688,347 1977,347 Z M1744,347" style="fill:rgb(255,255,255);stroke:none" clip-path="url(#clip13)" />
<clipPath id="clip14"><path d="M1733,344 L1989,344 L1989,427 L1733,427 L1733,344 Z" /></clipPath>
<path d="M1744,347 C1739.5820313,347 1736,350.5820313 1736,355 L1736,415 C1736,419.4179688 1739.5820313,423 1744,423 L1977,423 C1981.4179688,423 1985,419.4179688 1985,415 L1985,355 C1985,350.5820313 1981.4179688,347 1977,347 Z M1744,347" style="fill:none;stroke:rgb(10,92,185);stroke-width:3" clip-path="url(#clip14)" />
<text x="1771" y="386" style="font:20px Dialog">PYALGOTRADE</text>
<clipPath id="clip15"><path d="M1167,52 L1719,52 L1719,106 L1167,106 Z M1484,58 C1481.2382813,58 1479,60.2382813 1479,63 L1479,99 C1479,101.7617188 1481.2382813,104 1484,104 L1712,104 C1714.7617188,104 1717,101.7617188 1717,99 L1717,63 C1717,60.2382813 1714.7617188,58 1712,58 Z M1484,58 Z M1484,58" /></clipPath>
<path d="M1466,81 C1466,81 1464.2070313,81 1462,81 L1457,81" style="fill:none;stroke:rgb(10,92,185)" clip-path="url(#clip15)" />
<clipPath id="clip16"><path d="M1166,51 L1720,51 L1720,107 L1166,107 L1166,51 Z" /></clipPath>
<path d="M1479,81 L1466,81" style="fill:none;stroke:rgb(10,92,185)" clip-path="url(#clip16)" />
<clipPath id="clip17"><path d="M1477,56 L1720,56 L1720,107 L1477,107 L1477,56 Z" /></clipPath>
<path d="M1484,58 C1481.2382813,58 1479,60.2382813 1479,63 L1479,99 C1479,101.7617188 1481.2382813,104 1484,104 L1712,104 C1714.7617188,104 1717,101.7617188 1717,99 L1717,63 C1717,60.2382813 1714.7617188,58 1712,58 Z M1484,58" style="fill:rgb(255,255,255);stroke:none" clip-path="url(#clip17)" />
<clipPath id="clip18"><path d="M1477,56 L1720,56 L1720,107 L1477,107 L1477,56 Z" /></clipPath>
<path d="M1484,58 C1481.2382813,58 1479,60.2382813 1479,63 L1479,99 C1479,101.7617188 1481.2382813,104 1484,104 L1712,104 C1714.7617188,104 1717,101.7617188 1717,99 L1717,63 C1717,60.2382813 1714.7617188,58 1712,58 Z M1484,58" style="fill:none;stroke:rgb(13,70,170);stroke-width:2" clip-path="url(#clip18)" />
<text x="1495" y="82" style="font:14px Dialog">WEBSOCKET(FOR FEED)</text>
<clipPath id="clip19"><path d="M1466,75 L1479,75 L1479,88 L1466,88 L1466,75 Z" /></clipPath>
<path d="M1476.5,81 C1476.5,78.515625 1474.484375,76.5 1472,76.5 C1469.515625,76.5 1467.5,78.515625 1467.5,81 C1467.5,83.484375 1469.515625,85.5 1472,85.5 C1474.484375,85.5 1476.5,83.484375 1476.5,81 Z M1476.5,81" style="fill:rgb(250,250,250);stroke:none" clip-path="url(#clip19)" />
<clipPath id="clip20"><path d="M1466,75 L1479,75 L1479,88 L1466,88 L1466,75 Z" /></clipPath>
<path d="M1476.5,81 C1476.5,78.515625 1474.484375,76.5 1472,76.5 C1469.515625,76.5 1467.5,78.515625 1467.5,81 C1467.5,83.484375 1469.515625,85.5 1472,85.5 C1474.484375,85.5 1476.5,83.484375 1476.5,81 Z M1476.5,81" style="fill:none;stroke:rgb(10,92,185)" clip-path="url(#clip20)" />
<clipPath id="clip21"><path d="M1466,75 L1479,75 L1479,88 L1466,88 L1466,75 Z" /></clipPath>
<path d="M1470,81 L1474,81" style="fill:none;stroke:rgb(150,160,200)" clip-path="url(#clip21)" />
<clipPath id="clip22"><path d="M1167,52 L1459,52 L1459,82 L1167,82 Z M1361,53 L1361,80 L1457,80 L1457,53 Z M1361,53 Z M1361,53" /></clipPath>
<path d="M1348,81 C1348,81 1346.2070313,81 1344,81 L1339,81" style="fill:none;stroke:rgb(10,92,185)" clip-path="url(#clip22)" />
<clipPath id="clip23"><path d="M1166,51 L1460,51 L1460,83 L1166,83 L1166,51 Z" /></clipPath>
<path d="M1361,81 L1348,81" style="fill:none;stroke:rgb(10,92,185)" clip-path="url(#clip23)" />
<clipPath id="clip24"><path d="M1359,51 L1460,51 L1460,83 L1359,83 L1359,51 Z" /></clipPath>
<path d="M1361,81 L1457,81 Z M1361,81" style="fill:none;stroke:rgb(10,92,185)" clip-path="url(#clip24)" />
<text x="1372" y="67" style="font:10px Dialog">client(Base)</text>
<clipPath id="clip25"><path d="M1348,61 L1361,61 L1361,74 L1348,74 L1348,61 Z" /></clipPath>
<path d="M1358.5,67 C1358.5,64.515625 1356.484375,62.5 1354,62.5 C1351.515625,62.5 1349.5,64.515625 1349.5,67 C1349.5,69.484375 1351.515625,71.5 1354,71.5 C1356.484375,71.5 1358.5,69.484375 1358.5,67 Z M1358.5,67" style="fill:rgb(250,250,250);stroke:none" clip-path="url(#clip25)" />
<clipPath id="clip26"><path d="M1348,61 L1361,61 L1361,74 L1348,74 L1348,61 Z" /></clipPath>
<path d="M1358.5,67 C1358.5,64.515625 1356.484375,62.5 1354,62.5 C1351.515625,62.5 1349.5,64.515625 1349.5,67 C1349.5,69.484375 1351.515625,71.5 1354,71.5 C1356.484375,71.5 1358.5,69.484375 1358.5,67 Z M1358.5,67" style="fill:none;stroke:rgb(10,92,185)" clip-path="url(#clip26)" />
<clipPath id="clip27"><path d="M1348,61 L1361,61 L1361,74 L1348,74 L1348,61 Z" /></clipPath>
<path d="M1352,67 L1356,67" style="fill:none;stroke:rgb(150,160,200)" clip-path="url(#clip27)" />
<clipPath id="clip28"><path d="M1166,51 L1342,51 L1342,83 L1166,83 L1166,51 Z" /></clipPath>
<path d="M1168,81 L1339,81 Z M1168,81" style="fill:none;stroke:rgb(10,92,185)" clip-path="url(#clip28)" />
<text x="1179" y="67" style="font:10px Dialog">pusher.WebSocketClient</text>
<clipPath id="clip29"><path d="M15,136 L1678,136 L1678,445 L15,445 Z M1529,358 C1526.2382813,358 1524,360.2382813 1524,363 L1524,399 C1524,401.7617188 1526.2382813,404 1529,404 L1671,404 C1673.7617188,404 1676,401.7617188 1676,399 L1676,363 C1676,360.2382813 1673.7617188,358 1671,358 Z M1529,358 Z M1529,358" /></clipPath>
<path d="M1511,381 L1511,322 C1511,319.7929688 1509.2070313,318 1507,318 L1502,318" style="fill:none;stroke:rgb(10,92,185)" clip-path="url(#clip29)" />
<clipPath id="clip30"><path d="M15,136 L1678,136 L1678,445 L15,445 Z M1529,358 C1526.2382813,358 1524,360.2382813 1524,363 L1524,399 C1524,401.7617188 1526.2382813,404 1529,404 L1671,404 C1673.7617188,404 1676,401.7617188 1676,399 L1676,363 C1676,360.2382813 1673.7617188,358 1671,358 Z M1529,358 Z M1529,358" /></clipPath>
<path d="M1511,381 L1511,440 C1511,442.2070313 1509.2070313,444 1507,444 L1502,444" style="fill:none;stroke:rgb(10,92,185)" clip-path="url(#clip30)" />
<clipPath id="clip31"><path d="M14,135 L1679,135 L1679,446 L14,446 L14,135 Z" /></clipPath>
<path d="M1524,381 L1511,381" style="fill:none;stroke:rgb(10,92,185)" clip-path="url(#clip31)" />
<clipPath id="clip32"><path d="M1522,356 L1679,356 L1679,407 L1522,407 L1522,356 Z" /></clipPath>
<path d="M1529,358 C1526.2382813,358 1524,360.2382813 1524,363 L1524,399 C1524,401.7617188 1526.2382813,404 1529,404 L1671,404 C1673.7617188,404 1676,401.7617188 1676,399 L1676,363 C1676,360.2382813 1673.7617188,358 1671,358 Z M1529,358" style="fill:rgb(255,255,255);stroke:none" clip-path="url(#clip32)" />
<clipPath id="clip33"><path d="M1522,356 L1679,356 L1679,407 L1522,407 L1522,356 Z" /></clipPath>
<path d="M1529,358 C1526.2382813,358 1524,360.2382813 1524,363 L1524,399 C1524,401.7617188 1526.2382813,404 1529,404 L1671,404 C1673.7617188,404 1676,401.7617188 1676,399 L1676,363 C1676,360.2382813 1673.7617188,358 1671,358 Z M1529,358" style="fill:none;stroke:rgb(13,70,170);stroke-width:2" clip-path="url(#clip33)" />
<text x="1540" y="382" style="font:14px Dialog">OBSERVER.PY</text>
<clipPath id="clip34"><path d="M1511,375 L1524,375 L1524,388 L1511,388 L1511,375 Z" /></clipPath>
<path d="M1521.5,381 C1521.5,378.515625 1519.484375,376.5 1517,376.5 C1514.515625,376.5 1512.5,378.515625 1512.5,381 C1512.5,383.484375 1514.515625,385.5 1517,385.5 C1519.484375,385.5 1521.5,383.484375 1521.5,381 Z M1521.5,381" style="fill:rgb(250,250,250);stroke:none" clip-path="url(#clip34)" />
<clipPath id="clip35"><path d="M1511,375 L1524,375 L1524,388 L1511,388 L1511,375 Z" /></clipPath>
<path d="M1521.5,381 C1521.5,378.515625 1519.484375,376.5 1517,376.5 C1514.515625,376.5 1512.5,378.515625 1512.5,381 C1512.5,383.484375 1514.515625,385.5 1517,385.5 C1519.484375,385.5 1521.5,383.484375 1521.5,381 Z M1521.5,381" style="fill:none;stroke:rgb(10,92,185)" clip-path="url(#clip35)" />
<clipPath id="clip36"><path d="M1511,375 L1524,375 L1524,388 L1511,388 L1511,375 Z" /></clipPath>
<path d="M1515,381 L1519,381" style="fill:none;stroke:rgb(150,160,200)" clip-path="url(#clip36)" />
<clipPath id="clip37"><path d="M15,136 L1504,136 L1504,414 L15,414 Z M1363,290 L1363,317 L1502,317 L1502,290 Z M1363,290 Z M1363,290" /></clipPath>
<path d="M1350,318 L1350,227 C1350,224.7929688 1348.2070313,223 1346,223 L1341,223" style="fill:none;stroke:rgb(10,92,185)" clip-path="url(#clip37)" />
<clipPath id="clip38"><path d="M15,136 L1504,136 L1504,414 L15,414 Z M1363,290 L1363,317 L1502,317 L1502,290 Z M1363,290 Z M1363,290" /></clipPath>
<path d="M1350,318 L1350,347 C1350,349.2070313 1348.2070313,351 1346,351 L1341,351" style="fill:none;stroke:rgb(10,92,185)" clip-path="url(#clip38)" />
<clipPath id="clip39"><path d="M15,136 L1504,136 L1504,414 L15,414 Z M1363,290 L1363,317 L1502,317 L1502,290 Z M1363,290 Z M1363,290" /></clipPath>
<path d="M1350,318 L1350,378 C1350,380.2070313 1348.2070313,382 1346,382 L1341,382" style="fill:none;stroke:rgb(10,92,185)" clip-path="url(#clip39)" />
<clipPath id="clip40"><path d="M15,136 L1504,136 L1504,414 L15,414 Z M1363,290 L1363,317 L1502,317 L1502,290 Z M1363,290 Z M1363,290" /></clipPath>
<path d="M1350,318 L1350,409 C1350,411.2070313 1348.2070313,413 1346,413 L1341,413" style="fill:none;stroke:rgb(10,92,185)" clip-path="url(#clip40)" />
<clipPath id="clip41"><path d="M14,135 L1505,135 L1505,415 L14,415 L14,135 Z" /></clipPath>
<path d="M1363,318 L1350,318" style="fill:none;stroke:rgb(10,92,185)" clip-path="url(#clip41)" />
<clipPath id="clip42"><path d="M1361,288 L1505,288 L1505,320 L1361,320 L1361,288 Z" /></clipPath>
<path d="M1363,318 L1502,318 Z M1363,318" style="fill:none;stroke:rgb(10,92,185)" clip-path="url(#clip42)" />
<text x="1374" y="304" style="font:10px Dialog">Subject(pub event)</text>
<clipPath id="clip43"><path d="M1350,298 L1363,298 L1363,311 L1350,311 L1350,298 Z" /></clipPath>
<path d="M1360.5,304 C1360.5,301.515625 1358.484375,299.5 1356,299.5 C1353.515625,299.5 1351.5,301.515625 1351.5,304 C1351.5,306.484375 1353.515625,308.5 1356,308.5 C1358.484375,308.5 1360.5,306.484375 1360.5,304 Z M1360.5,304" style="fill:rgb(250,250,250);stroke:none" clip-path="url(#clip43)" />
<clipPath id="clip44"><path d="M1350,298 L1363,298 L1363,311 L1350,311 L1350,298 Z" /></clipPath>
<path d="M1360.5,304 C1360.5,301.515625 1358.484375,299.5 1356,299.5 C1353.515625,299.5 1351.5,301.515625 1351.5,304 C1351.5,306.484375 1353.515625,308.5 1356,308.5 C1358.484375,308.5 1360.5,306.484375 1360.5,304 Z M1360.5,304" style="fill:none;stroke:rgb(10,92,185)" clip-path="url(#clip44)" />
<clipPath id="clip45"><path d="M1350,298 L1363,298 L1363,311 L1350,311 L1350,298 Z" /></clipPath>
<path d="M1354,304 L1358,304" style="fill:none;stroke:rgb(150,160,200)" clip-path="url(#clip45)" />
<clipPath id="clip46"><path d="M15,136 L1343,136 L1343,321 L15,321 Z M903,195 L903,222 L1341,222 L1341,195 Z M903,195 Z M903,195" /></clipPath>
<path d="M890,223 L890,169 C890,166.7929688 888.2070313,165 886,165 L881,165" style="fill:none;stroke:rgb(10,92,185)" clip-path="url(#clip46)" />
<clipPath id="clip47"><path d="M15,136 L1343,136 L1343,321 L15,321 Z M903,195 L903,222 L1341,222 L1341,195 Z M903,195 Z M903,195" /></clipPath>
<path d="M890,223 L890,277 C890,279.2070313 888.2070313,281 886,281 L169,281" style="fill:none;stroke:rgb(10,92,185)" clip-path="url(#clip47)" />
<clipPath id="clip48"><path d="M14,135 L1344,135 L1344,322 L14,322 L14,135 Z" /></clipPath>
<path d="M903,223 L890,223" style="fill:none;stroke:rgb(10,92,185)" clip-path="url(#clip48)" />
<clipPath id="clip49"><path d="M901,193 L1344,193 L1344,225 L901,225 L901,193 Z" /></clipPath>
<path d="M903,223 L1341,223 Z M903,223" style="fill:none;stroke:rgb(10,92,185)" clip-path="url(#clip49)" />
<text x="914" y="209" style="font:10px Dialog">feed.BaseFeed(Generate Bar and DataSeries) -- getNewValuesEvent</text>
<clipPath id="clip50"><path d="M890,203 L903,203 L903,216 L890,216 L890,203 Z" /></clipPath>
<path d="M900.5,209 C900.5,206.515625 898.484375,204.5 896,204.5 C893.515625,204.5 891.5,206.515625 891.5,209 C891.5,211.484375 893.515625,213.5 896,213.5 C898.484375,213.5 900.5,211.484375 900.5,209 Z M900.5,209" style="fill:rgb(250,250,250);stroke:none" clip-path="url(#clip50)" />
<clipPath id="clip51"><path d="M890,203 L903,203 L903,216 L890,216 L890,203 Z" /></clipPath>
<path d="M900.5,209 C900.5,206.515625 898.484375,204.5 896,204.5 C893.515625,204.5 891.5,206.515625 891.5,209 C891.5,211.484375 893.515625,213.5 896,213.5 C898.484375,213.5 900.5,211.484375 900.5,209 Z M900.5,209" style="fill:none;stroke:rgb(10,92,185)" clip-path="url(#clip51)" />
<clipPath id="clip52"><path d="M890,203 L903,203 L903,216 L890,216 L890,203 Z" /></clipPath>
<path d="M894,209 L898,209" style="fill:none;stroke:rgb(150,160,200)" clip-path="url(#clip52)" />
<clipPath id="clip53"><path d="M557,136 L883,136 L883,166 L557,166 Z M710,137 L710,164 L881,164 L881,137 Z M710,137 Z M710,137" /></clipPath>
<path d="M697,165 C697,165 695.2070313,165 693,165 L688,165" style="fill:none;stroke:rgb(10,92,185)" clip-path="url(#clip53)" />
<clipPath id="clip54"><path d="M556,135 L884,135 L884,167 L556,167 L556,135 Z" /></clipPath>
<path d="M710,165 L697,165" style="fill:none;stroke:rgb(10,92,185)" clip-path="url(#clip54)" />
<clipPath id="clip55"><path d="M708,135 L884,135 L884,167 L708,167 L708,135 Z" /></clipPath>
<path d="M710,165 L881,165 Z M710,165" style="fill:none;stroke:rgb(10,92,185)" clip-path="url(#clip55)" />
<text x="721" y="151" style="font:10px Dialog">feed.memfeed.MemFeed</text>
<clipPath id="clip56"><path d="M697,145 L710,145 L710,158 L697,158 L697,145 Z" /></clipPath>
<path d="M707.5,151 C707.5,148.515625 705.484375,146.5 703,146.5 C700.515625,146.5 698.5,148.515625 698.5,151 C698.5,153.484375 700.515625,155.5 703,155.5 C705.484375,155.5 707.5,153.484375 707.5,151 Z M707.5,151" style="fill:rgb(250,250,250);stroke:none" clip-path="url(#clip56)" />
<clipPath id="clip57"><path d="M697,145 L710,145 L710,158 L697,158 L697,145 Z" /></clipPath>
<path d="M707.5,151 C707.5,148.515625 705.484375,146.5 703,146.5 C700.515625,146.5 698.5,148.515625 698.5,151 C698.5,153.484375 700.515625,155.5 703,155.5 C705.484375,155.5 707.5,153.484375 707.5,151 Z M707.5,151" style="fill:none;stroke:rgb(10,92,185)" clip-path="url(#clip57)" />
<clipPath id="clip58"><path d="M697,145 L710,145 L710,158 L697,158 L697,145 Z" /></clipPath>
<path d="M701,151 L705,151" style="fill:none;stroke:rgb(150,160,200)" clip-path="url(#clip58)" />
<clipPath id="clip59"><path d="M556,135 L691,135 L691,167 L556,167 L556,135 Z" /></clipPath>
<path d="M558,165 L688,165 Z M558,165" style="fill:none;stroke:rgb(10,92,185)" clip-path="url(#clip59)" />
<text x="569" y="151" style="font:10px Dialog">feed.csvfeed.Feed</text>
<clipPath id="clip60"><path d="M15,167 L883,167 L883,321 L15,321 Z M16,253 L16,280 L169,280 L169,253 Z M16,253 Z M16,253" /></clipPath>
<path d="M182,281 C182,281 183.7929688,281 186,281 L191,281" style="fill:none;stroke:rgb(10,92,185)" clip-path="url(#clip60)" />
<clipPath id="clip61"><path d="M14,166 L884,166 L884,322 L14,322 L14,166 Z" /></clipPath>
<path d="M169,281 L182,281" style="fill:none;stroke:rgb(10,92,185)" clip-path="url(#clip61)" />
<clipPath id="clip62"><path d="M14,251 L172,251 L172,283 L14,283 L14,251 Z" /></clipPath>
<path d="M16,281 L169,281 Z M16,281" style="fill:none;stroke:rgb(10,92,185)" clip-path="url(#clip62)" />
<text x="27" y="267" style="font:10px Dialog">barfeed.BaseBarFeed</text>
<clipPath id="clip63"><path d="M170,261 L183,261 L183,274 L170,274 L170,261 Z" /></clipPath>
<path d="M180.5,267 C180.5,264.515625 178.484375,262.5 176,262.5 C173.515625,262.5 171.5,264.515625 171.5,267 C171.5,269.484375 173.515625,271.5 176,271.5 C178.484375,271.5 180.5,269.484375 180.5,267 Z M180.5,267" style="fill:rgb(250,250,250);stroke:none" clip-path="url(#clip63)" />
<clipPath id="clip64"><path d="M170,261 L183,261 L183,274 L170,274 L170,261 Z" /></clipPath>
<path d="M180.5,267 C180.5,264.515625 178.484375,262.5 176,262.5 C173.515625,262.5 171.5,264.515625 171.5,267 C171.5,269.484375 173.515625,271.5 176,271.5 C178.484375,271.5 180.5,269.484375 180.5,267 Z M180.5,267" style="fill:none;stroke:rgb(10,92,185)" clip-path="url(#clip64)" />
<clipPath id="clip65"><path d="M170,261 L183,261 L183,274 L170,274 L170,261 Z" /></clipPath>
<path d="M174,267 L178,267" style="fill:none;stroke:rgb(150,160,200)" clip-path="url(#clip65)" />
<clipPath id="clip66"><path d="M190,167 L883,167 L883,321 L190,321 Z M191,253 L191,280 L360,280 L360,253 Z M191,253 Z M191,253" /></clipPath>
<path d="M373,281 L373,246 C373,243.7929688 374.7929688,242 377,242 L382,242" style="fill:none;stroke:rgb(10,92,185)" clip-path="url(#clip66)" />
<clipPath id="clip67"><path d="M190,167 L883,167 L883,321 L190,321 Z M191,253 L191,280 L360,280 L360,253 Z M191,253 Z M191,253" /></clipPath>
<path d="M373,281 L373,316 C373,318.2070313 374.7929688,320 377,320 L382,320" style="fill:none;stroke:rgb(10,92,185)" clip-path="url(#clip67)" />
<clipPath id="clip68"><path d="M189,166 L884,166 L884,322 L189,322 L189,166 Z" /></clipPath>
<path d="M360,281 L373,281" style="fill:none;stroke:rgb(10,92,185)" clip-path="url(#clip68)" />
<clipPath id="clip69"><path d="M189,251 L363,251 L363,283 L189,283 L189,251 Z" /></clipPath>
<path d="M191,281 L360,281 Z M191,281" style="fill:none;stroke:rgb(10,92,185)" clip-path="url(#clip69)" />
<text x="202" y="267" style="font:10px Dialog">barfeed.membf.BarFeed</text>
<clipPath id="clip70"><path d="M361,261 L374,261 L374,274 L361,274 L361,261 Z" /></clipPath>
<path d="M371.5,267 C371.5,264.515625 369.484375,262.5 367,262.5 C364.515625,262.5 362.5,264.515625 362.5,267 C362.5,269.484375 364.515625,271.5 367,271.5 C369.484375,271.5 371.5,269.484375 371.5,267 Z M371.5,267" style="fill:rgb(250,250,250);stroke:none" clip-path="url(#clip70)" />
<clipPath id="clip71"><path d="M361,261 L374,261 L374,274 L361,274 L361,261 Z" /></clipPath>
<path d="M371.5,267 C371.5,264.515625 369.484375,262.5 367,262.5 C364.515625,262.5 362.5,264.515625 362.5,267 C362.5,269.484375 364.515625,271.5 367,271.5 C369.484375,271.5 371.5,269.484375 371.5,267 Z M371.5,267" style="fill:none;stroke:rgb(10,92,185)" clip-path="url(#clip71)" />
<clipPath id="clip72"><path d="M361,261 L374,261 L374,274 L361,274 L361,261 Z" /></clipPath>
<path d="M365,267 L369,267" style="fill:none;stroke:rgb(150,160,200)" clip-path="url(#clip72)" />
<clipPath id="clip73"><path d="M381,167 L883,167 L883,290 L381,290 Z M382,214 L382,241 L658,241 L658,214 Z M382,214 Z M382,214" /></clipPath>
<path d="M671,242 L671,200 C671,197.7929688 672.7929688,196 675,196 L680,196" style="fill:none;stroke:rgb(10,92,185)" clip-path="url(#clip73)" />
<clipPath id="clip74"><path d="M381,167 L883,167 L883,290 L381,290 Z M382,214 L382,241 L658,241 L658,214 Z M382,214 Z M382,214" /></clipPath>
<path d="M671,242 L671,231 C671,228.7929688 672.7929688,227 675,227 L680,227" style="fill:none;stroke:rgb(10,92,185)" clip-path="url(#clip74)" />
<clipPath id="clip75"><path d="M381,167 L883,167 L883,290 L381,290 Z M382,214 L382,241 L658,241 L658,214 Z M382,214 Z M382,214" /></clipPath>
<path d="M671,242 L671,254 C671,256.2070313 672.7929688,258 675,258 L680,258" style="fill:none;stroke:rgb(10,92,185)" clip-path="url(#clip75)" />
<clipPath id="clip76"><path d="M381,167 L883,167 L883,290 L381,290 Z M382,214 L382,241 L658,241 L658,214 Z M382,214 Z M382,214" /></clipPath>
<path d="M671,242 L671,285 C671,287.2070313 672.7929688,289 675,289 L680,289" style="fill:none;stroke:rgb(10,92,185)" clip-path="url(#clip76)" />
<clipPath id="clip77"><path d="M380,166 L884,166 L884,291 L380,291 L380,166 Z" /></clipPath>
<path d="M658,242 L671,242" style="fill:none;stroke:rgb(10,92,185)" clip-path="url(#clip77)" />
<clipPath id="clip78"><path d="M380,212 L661,212 L661,244 L380,244 L380,212 Z" /></clipPath>
<path d="M382,242 L658,242 Z M382,242" style="fill:none;stroke:rgb(10,92,185)" clip-path="url(#clip78)" />
<text x="393" y="228" style="font:10px Dialog">barfeed.csvfeed.BarFeed/GenericBarFeed</text>
<clipPath id="clip79"><path d="M659,222 L672,222 L672,235 L659,235 L659,222 Z" /></clipPath>
<path d="M669.5,228 C669.5,225.515625 667.484375,223.5 665,223.5 C662.515625,223.5 660.5,225.515625 660.5,228 C660.5,230.484375 662.515625,232.5 665,232.5 C667.484375,232.5 669.5,230.484375 669.5,228 Z M669.5,228" style="fill:rgb(250,250,250);stroke:none" clip-path="url(#clip79)" />
<clipPath id="clip80"><path d="M659,222 L672,222 L672,235 L659,235 L659,222 Z" /></clipPath>
<path d="M669.5,228 C669.5,225.515625 667.484375,223.5 665,223.5 C662.515625,223.5 660.5,225.515625 660.5,228 C660.5,230.484375 662.515625,232.5 665,232.5 C667.484375,232.5 669.5,230.484375 669.5,228 Z M669.5,228" style="fill:none;stroke:rgb(10,92,185)" clip-path="url(#clip80)" />
<clipPath id="clip81"><path d="M659,222 L672,222 L672,235 L659,235 L659,222 Z" /></clipPath>
<path d="M663,228 L667,228" style="fill:none;stroke:rgb(150,160,200)" clip-path="url(#clip81)" />
<clipPath id="clip82"><path d="M678,166 L857,166 L857,198 L678,198 L678,166 Z" /></clipPath>
<path d="M680,196 L854,196 Z M680,196" style="fill:none;stroke:rgb(10,92,185)" clip-path="url(#clip82)" />
<text x="691" y="182" style="font:10px Dialog">barfeed.googlefeed.Feed</text>
<clipPath id="clip83"><path d="M678,197 L853,197 L853,229 L678,229 L678,197 Z" /></clipPath>
<path d="M680,227 L850,227 Z M680,227" style="fill:none;stroke:rgb(10,92,185)" clip-path="url(#clip83)" />
<text x="691" y="213" style="font:10px Dialog">barfeed.yahoofeed.Feed</text>
<clipPath id="clip84"><path d="M678,228 L884,228 L884,260 L678,260 L678,228 Z" /></clipPath>
<path d="M680,258 L881,258 Z M680,258" style="fill:none;stroke:rgb(10,92,185)" clip-path="url(#clip84)" />
<text x="691" y="244" style="font:10px Dialog">barfeed.ninjatraderfeed.Feed</text>
<clipPath id="clip85"><path d="M678,259 L858,259 L858,291 L678,291 L678,259 Z" /></clipPath>
<path d="M680,289 L855,289 Z M680,289" style="fill:none;stroke:rgb(10,92,185)" clip-path="url(#clip85)" />
<text x="691" y="275" style="font:10px Dialog">barfeed.quandlfeed.Feed</text>
<clipPath id="clip86"><path d="M380,290 L550,290 L550,322 L380,322 L380,290 Z" /></clipPath>
<path d="M382,320 L547,320 Z M382,320" style="fill:none;stroke:rgb(10,92,185)" clip-path="url(#clip86)" />
<text x="393" y="306" style="font:10px Dialog">barfeed.sqlitefeed.Feed</text>
<clipPath id="clip87"><path d="M877,322 L1343,322 L1343,352 L877,352 Z M1082,323 L1082,350 L1341,350 L1341,323 Z M1082,323 Z M1082,323" /></clipPath>
<path d="M1069,351 C1069,351 1067.2070313,351 1065,351 L1060,351" style="fill:none;stroke:rgb(10,92,185)" clip-path="url(#clip87)" />
<clipPath id="clip88"><path d="M876,321 L1344,321 L1344,353 L876,353 L876,321 Z" /></clipPath>
<path d="M1082,351 L1069,351" style="fill:none;stroke:rgb(10,92,185)" clip-path="url(#clip88)" />
<clipPath id="clip89"><path d="M1080,321 L1344,321 L1344,353 L1080,353 L1080,321 Z" /></clipPath>
<path d="M1082,351 L1341,351 Z M1082,351" style="fill:none;stroke:rgb(10,92,185)" clip-path="url(#clip89)" />
<text x="1093" y="337" style="font:10px Dialog">broker.Broker--getOrderUpdatedEvent</text>
<clipPath id="clip90"><path d="M1069,331 L1082,331 L1082,344 L1069,344 L1069,331 Z" /></clipPath>
<path d="M1079.5,337 C1079.5,334.515625 1077.484375,332.5 1075,332.5 C1072.515625,332.5 1070.5,334.515625 1070.5,337 C1070.5,339.484375 1072.515625,341.5 1075,341.5 C1077.484375,341.5 1079.5,339.484375 1079.5,337 Z M1079.5,337" style="fill:rgb(250,250,250);stroke:none" clip-path="url(#clip90)" />
<clipPath id="clip91"><path d="M1069,331 L1082,331 L1082,344 L1069,344 L1069,331 Z" /></clipPath>
<path d="M1079.5,337 C1079.5,334.515625 1077.484375,332.5 1075,332.5 C1072.515625,332.5 1070.5,334.515625 1070.5,337 C1070.5,339.484375 1072.515625,341.5 1075,341.5 C1077.484375,341.5 1079.5,339.484375 1079.5,337 Z M1079.5,337" style="fill:none;stroke:rgb(10,92,185)" clip-path="url(#clip91)" />
<clipPath id="clip92"><path d="M1069,331 L1082,331 L1082,344 L1069,344 L1069,331 Z" /></clipPath>
<path d="M1073,337 L1077,337" style="fill:none;stroke:rgb(150,160,200)" clip-path="url(#clip92)" />
<clipPath id="clip93"><path d="M876,321 L1063,321 L1063,353 L876,353 L876,321 Z" /></clipPath>
<path d="M878,351 L1060,351 Z M878,351" style="fill:none;stroke:rgb(10,92,185)" clip-path="url(#clip93)" />
<text x="889" y="337" style="font:10px Dialog">broker.backtesting.Broker</text>
<clipPath id="clip94"><path d="M1217,352 L1344,352 L1344,384 L1217,384 L1217,352 Z" /></clipPath>
<path d="M1219,382 L1341,382 Z M1219,382" style="fill:none;stroke:rgb(10,92,185)" clip-path="url(#clip94)" />
<text x="1230" y="368" style="font:10px Dialog">bitstamp.Broker</text>
<clipPath id="clip95"><path d="M1201,383 L1344,383 L1344,415 L1201,415 L1201,383 Z" /></clipPath>
<path d="M1203,413 L1341,413 Z M1203,413" style="fill:none;stroke:rgb(10,92,185)" clip-path="url(#clip95)" />
<text x="1214" y="398" style="font:10px Dialog">twitter.TwitterFeed</text>
<clipPath id="clip96"><path d="M1444,414 L1505,414 L1505,446 L1444,446 L1444,414 Z" /></clipPath>
<path d="M1446,444 L1502,444 Z M1446,444" style="fill:none;stroke:rgb(10,92,185)" clip-path="url(#clip96)" />
<text x="1457" y="429" style="font:10px Dialog">Event</text>
<clipPath id="clip97"><path d="M1363,475 L1681,475 L1681,544 L1363,544 Z M1580,496 C1577.2382813,496 1575,498.2382813 1575,501 L1575,537 C1575,539.7617188 1577.2382813,542 1580,542 L1674,542 C1676.7617188,542 1679,539.7617188 1679,537 L1679,501 C1679,498.2382813 1676.7617188,496 1674,496 Z M1580,496 Z M1580,496" /></clipPath>
<path d="M1562,519 L1562,508 C1562,505.7929688 1560.2070313,504 1558,504 L1553,504" style="fill:none;stroke:rgb(10,92,185)" clip-path="url(#clip97)" />
<clipPath id="clip98"><path d="M1363,475 L1681,475 L1681,544 L1363,544 Z M1580,496 C1577.2382813,496 1575,498.2382813 1575,501 L1575,537 C1575,539.7617188 1577.2382813,542 1580,542 L1674,542 C1676.7617188,542 1679,539.7617188 1679,537 L1679,501 C1679,498.2382813 1676.7617188,496 1674,496 Z M1580,496 Z M1580,496" /></clipPath>
<path d="M1562,519 L1562,531 C1562,533.2070313 1560.2070313,535 1558,535 L1553,535" style="fill:none;stroke:rgb(10,92,185)" clip-path="url(#clip98)" />
<clipPath id="clip99"><path d="M1362,474 L1682,474 L1682,545 L1362,545 L1362,474 Z" /></clipPath>
<path d="M1575,519 L1562,519" style="fill:none;stroke:rgb(10,92,185)" clip-path="url(#clip99)" />
<clipPath id="clip100"><path d="M1573,494 L1682,494 L1682,545 L1573,545 L1573,494 Z" /></clipPath>
<path d="M1580,496 C1577.2382813,496 1575,498.2382813 1575,501 L1575,537 C1575,539.7617188 1577.2382813,542 1580,542 L1674,542 C1676.7617188,542 1679,539.7617188 1679,537 L1679,501 C1679,498.2382813 1676.7617188,496 1674,496 Z M1580,496" style="fill:rgb(255,255,255);stroke:none" clip-path="url(#clip100)" />
<clipPath id="clip101"><path d="M1573,494 L1682,494 L1682,545 L1573,545 L1573,494 Z" /></clipPath>
<path d="M1580,496 C1577.2382813,496 1575,498.2382813 1575,501 L1575,537 C1575,539.7617188 1577.2382813,542 1580,542 L1674,542 C1676.7617188,542 1679,539.7617188 1679,537 L1679,501 C1679,498.2382813 1676.7617188,496 1674,496 Z M1580,496" style="fill:none;stroke:rgb(13,70,170);stroke-width:2" clip-path="url(#clip101)" />
<text x="1591" y="519" style="font:14px Dialog">BROKER</text>
<clipPath id="clip102"><path d="M1562,513 L1575,513 L1575,526 L1562,526 L1562,513 Z" /></clipPath>
<path d="M1572.5,519 C1572.5,516.515625 1570.484375,514.5 1568,514.5 C1565.515625,514.5 1563.5,516.515625 1563.5,519 C1563.5,521.484375 1565.515625,523.5 1568,523.5 C1570.484375,523.5 1572.5,521.484375 1572.5,519 Z M1572.5,519" style="fill:rgb(250,250,250);stroke:none" clip-path="url(#clip102)" />
<clipPath id="clip103"><path d="M1562,513 L1575,513 L1575,526 L1562,526 L1562,513 Z" /></clipPath>
<path d="M1572.5,519 C1572.5,516.515625 1570.484375,514.5 1568,514.5 C1565.515625,514.5 1563.5,516.515625 1563.5,519 C1563.5,521.484375 1565.515625,523.5 1568,523.5 C1570.484375,523.5 1572.5,521.484375 1572.5,519 Z M1572.5,519" style="fill:none;stroke:rgb(10,92,185)" clip-path="url(#clip103)" />
<clipPath id="clip104"><path d="M1562,513 L1575,513 L1575,526 L1562,526 L1562,513 Z" /></clipPath>
<path d="M1566,519 L1570,519" style="fill:none;stroke:rgb(150,160,200)" clip-path="url(#clip104)" />
<clipPath id="clip105"><path d="M1362,474 L1556,474 L1556,506 L1362,506 L1362,474 Z" /></clipPath>
<path d="M1364,504 L1553,504 Z M1364,504" style="fill:none;stroke:rgb(10,92,185)" clip-path="url(#clip105)" />
<text x="1375" y="489" style="font:10px Dialog">fillstrategy.DefaultStrategy</text>
<clipPath id="clip106"><path d="M1489,505 L1556,505 L1556,537 L1489,537 L1489,505 Z" /></clipPath>
<path d="M1491,535 L1553,535 Z M1491,535" style="fill:none;stroke:rgb(10,92,185)" clip-path="url(#clip106)" />
<text x="1502" y="520" style="font:10px Dialog">Broker</text>
<clipPath id="clip107"><path d="M1329,574 L1695,574 L1695,628 L1329,628 Z M1399,580 C1396.2382813,580 1394,582.2382813 1394,585 L1394,621 C1394,623.7617188 1396.2382813,626 1399,626 L1688,626 C1690.7617188,626 1693,623.7617188 1693,621 L1693,585 C1693,582.2382813 1690.7617188,580 1688,580 Z M1399,580 Z M1399,580" /></clipPath>
<path d="M1381,603 C1381,603 1379.2070313,603 1377,603 L1372,603" style="fill:none;stroke:rgb(10,92,185)" clip-path="url(#clip107)" />
<clipPath id="clip108"><path d="M1328,573 L1696,573 L1696,629 L1328,629 L1328,573 Z" /></clipPath>
<path d="M1394,603 L1381,603" style="fill:none;stroke:rgb(10,92,185)" clip-path="url(#clip108)" />
<clipPath id="clip109"><path d="M1392,578 L1696,578 L1696,629 L1392,629 L1392,578 Z" /></clipPath>
<path d="M1399,580 C1396.2382813,580 1394,582.2382813 1394,585 L1394,621 C1394,623.7617188 1396.2382813,626 1399,626 L1688,626 C1690.7617188,626 1693,623.7617188 1693,621 L1693,585 C1693,582.2382813 1690.7617188,580 1688,580 Z M1399,580" style="fill:rgb(255,255,255);stroke:none" clip-path="url(#clip109)" />
<clipPath id="clip110"><path d="M1392,578 L1696,578 L1696,629 L1392,629 L1392,578 Z" /></clipPath>
<path d="M1399,580 C1396.2382813,580 1394,582.2382813 1394,585 L1394,621 C1394,623.7617188 1396.2382813,626 1399,626 L1688,626 C1690.7617188,626 1693,623.7617188 1693,621 L1693,585 C1693,582.2382813 1690.7617188,580 1688,580 Z M1399,580" style="fill:none;stroke:rgb(13,70,170);stroke-width:2" clip-path="url(#clip110)" />
<text x="1410" y="603" style="font:14px Dialog">DISPATCHER(DISPATCH EVENT)</text>
<clipPath id="clip111"><path d="M1381,597 L1394,597 L1394,610 L1381,610 L1381,597 Z" /></clipPath>
<path d="M1391.5,603 C1391.5,600.515625 1389.484375,598.5 1387,598.5 C1384.515625,598.5 1382.5,600.515625 1382.5,603 C1382.5,605.484375 1384.515625,607.5 1387,607.5 C1389.484375,607.5 1391.5,605.484375 1391.5,603 Z M1391.5,603" style="fill:rgb(250,250,250);stroke:none" clip-path="url(#clip111)" />
<clipPath id="clip112"><path d="M1381,597 L1394,597 L1394,610 L1381,610 L1381,597 Z" /></clipPath>
<path d="M1391.5,603 C1391.5,600.515625 1389.484375,598.5 1387,598.5 C1384.515625,598.5 1382.5,600.515625 1382.5,603 C1382.5,605.484375 1384.515625,607.5 1387,607.5 C1389.484375,607.5 1391.5,605.484375 1391.5,603 Z M1391.5,603" style="fill:none;stroke:rgb(10,92,185)" clip-path="url(#clip112)" />
<clipPath id="clip113"><path d="M1381,597 L1394,597 L1394,610 L1381,610 L1381,597 Z" /></clipPath>
<path d="M1385,603 L1389,603" style="fill:none;stroke:rgb(150,160,200)" clip-path="url(#clip113)" />
<clipPath id="clip114"><path d="M1328,573 L1375,573 L1375,605 L1328,605 L1328,573 Z" /></clipPath>
<path d="M1330,603 L1372,603 Z M1330,603" style="fill:none;stroke:rgb(10,92,185)" clip-path="url(#clip114)" />
<text x="1341" y="588" style="font:10px Dialog">run</text>
<clipPath id="clip115"><path d="M1374,658 L1720,658 L1720,727 L1374,727 Z M1617,679 C1614.2382813,679 1612,681.2382813 1612,684 L1612,720 C1612,722.7617188 1614.2382813,725 1617,725 L1713,725 C1715.7617188,725 1718,722.7617188 1718,720 L1718,684 C1718,681.2382813 1715.7617188,679 1713,679 Z M1617,679 Z M1617,679" /></clipPath>
<path d="M1599,702 L1599,691 C1599,688.7929688 1597.2070313,687 1595,687 L1590,687" style="fill:none;stroke:rgb(10,92,185)" clip-path="url(#clip115)" />
<clipPath id="clip116"><path d="M1374,658 L1720,658 L1720,727 L1374,727 Z M1617,679 C1614.2382813,679 1612,681.2382813 1612,684 L1612,720 C1612,722.7617188 1614.2382813,725 1617,725 L1713,725 C1715.7617188,725 1718,722.7617188 1718,720 L1718,684 C1718,681.2382813 1715.7617188,679 1713,679 Z M1617,679 Z M1617,679" /></clipPath>
<path d="M1599,702 L1599,714 C1599,716.2070313 1597.2070313,718 1595,718 L1590,718" style="fill:none;stroke:rgb(10,92,185)" clip-path="url(#clip116)" />
<clipPath id="clip117"><path d="M1373,657 L1721,657 L1721,728 L1373,728 L1373,657 Z" /></clipPath>
<path d="M1612,702 L1599,702" style="fill:none;stroke:rgb(10,92,185)" clip-path="url(#clip117)" />
<clipPath id="clip118"><path d="M1610,677 L1721,677 L1721,728 L1610,728 L1610,677 Z" /></clipPath>
<path d="M1617,679 C1614.2382813,679 1612,681.2382813 1612,684 L1612,720 C1612,722.7617188 1614.2382813,725 1617,725 L1713,725 C1715.7617188,725 1718,722.7617188 1718,720 L1718,684 C1718,681.2382813 1715.7617188,679 1713,679 Z M1617,679" style="fill:rgb(255,255,255);stroke:none" clip-path="url(#clip118)" />
<clipPath id="clip119"><path d="M1610,677 L1721,677 L1721,728 L1610,728 L1610,677 Z" /></clipPath>
<path d="M1617,679 C1614.2382813,679 1612,681.2382813 1612,684 L1612,720 C1612,722.7617188 1614.2382813,725 1617,725 L1713,725 C1715.7617188,725 1718,722.7617188 1718,720 L1718,684 C1718,681.2382813 1715.7617188,679 1713,679 Z M1617,679" style="fill:none;stroke:rgb(13,70,170);stroke-width:2" clip-path="url(#clip119)" />
<text x="1628" y="702" style="font:14px Dialog">BAR.BAR</text>
<clipPath id="clip120"><path d="M1599,696 L1612,696 L1612,709 L1599,709 L1599,696 Z" /></clipPath>
<path d="M1609.5,702 C1609.5,699.515625 1607.484375,697.5 1605,697.5 C1602.515625,697.5 1600.5,699.515625 1600.5,702 C1600.5,704.484375 1602.515625,706.5 1605,706.5 C1607.484375,706.5 1609.5,704.484375 1609.5,702 Z M1609.5,702" style="fill:rgb(250,250,250);stroke:none" clip-path="url(#clip120)" />
<clipPath id="clip121"><path d="M1599,696 L1612,696 L1612,709 L1599,709 L1599,696 Z" /></clipPath>
<path d="M1609.5,702 C1609.5,699.515625 1607.484375,697.5 1605,697.5 C1602.515625,697.5 1600.5,699.515625 1600.5,702 C1600.5,704.484375 1602.515625,706.5 1605,706.5 C1607.484375,706.5 1609.5,704.484375 1609.5,702 Z M1609.5,702" style="fill:none;stroke:rgb(10,92,185)" clip-path="url(#clip121)" />
<clipPath id="clip122"><path d="M1599,696 L1612,696 L1612,709 L1599,709 L1599,696 Z" /></clipPath>
<path d="M1603,702 L1607,702" style="fill:none;stroke:rgb(150,160,200)" clip-path="url(#clip122)" />
<clipPath id="clip123"><path d="M1373,657 L1593,657 L1593,689 L1373,689 L1373,657 Z" /></clipPath>
<path d="M1375,687 L1590,687 Z M1375,687" style="fill:none;stroke:rgb(10,92,185)" clip-path="url(#clip123)" />
<text x="1386" y="672" style="font:10px Dialog">bitcoincharts.barfeed.TradeBar</text>
<clipPath id="clip124"><path d="M1399,688 L1593,688 L1593,720 L1399,720 L1399,688 Z" /></clipPath>
<path d="M1401,718 L1590,718 Z M1401,718" style="fill:none;stroke:rgb(10,92,185)" clip-path="url(#clip124)" />
<text x="1412" y="703" style="font:10px Dialog">bitstamp.livefeed.TradeBar</text>
<clipPath id="clip125"><path d="M1987,608 L2568,608 L2568,855 L1987,855 Z M1993,722 C1990.2382813,722 1988,724.2382813 1988,727 L1988,763 C1988,765.7617188 1990.2382813,768 1993,768 L2103,768 C2105.7617188,768 2108,765.7617188 2108,763 L2108,727 C2108,724.2382813 2105.7617188,722 2103,722 Z M1993,722 Z M1993,722" /></clipPath>
<path d="M2121,745 C2121,745 2122.7929688,745 2125,745 L2130,745" style="fill:none;stroke:rgb(10,92,185)" clip-path="url(#clip125)" />
<clipPath id="clip126"><path d="M1986,607 L2569,607 L2569,856 L1986,856 L1986,607 Z" /></clipPath>
<path d="M2108,745 L2121,745" style="fill:none;stroke:rgb(10,92,185)" clip-path="url(#clip126)" />
<clipPath id="clip127"><path d="M1986,720 L2111,720 L2111,771 L1986,771 L1986,720 Z" /></clipPath>
<path d="M1993,722 C1990.2382813,722 1988,724.2382813 1988,727 L1988,763 C1988,765.7617188 1990.2382813,768 1993,768 L2103,768 C2105.7617188,768 2108,765.7617188 2108,763 L2108,727 C2108,724.2382813 2105.7617188,722 2103,722 Z M1993,722" style="fill:rgb(255,255,255);stroke:none" clip-path="url(#clip127)" />
<clipPath id="clip128"><path d="M1986,720 L2111,720 L2111,771 L1986,771 L1986,720 Z" /></clipPath>
<path d="M1993,722 C1990.2382813,722 1988,724.2382813 1988,727 L1988,763 C1988,765.7617188 1990.2382813,768 1993,768 L2103,768 C2105.7617188,768 2108,765.7617188 2108,763 L2108,727 C2108,724.2382813 2105.7617188,722 2103,722 Z M1993,722" style="fill:none;stroke:rgb(13,70,170);stroke-width:2" clip-path="url(#clip128)" />
<text x="2003" y="745" style="font:14px Dialog">STRATEGY</text>
<clipPath id="clip129"><path d="M2109,739 L2122,739 L2122,752 L2109,752 L2109,739 Z" /></clipPath>
<path d="M2119.5,745 C2119.5,742.515625 2117.484375,740.5 2115,740.5 C2112.515625,740.5 2110.5,742.515625 2110.5,745 C2110.5,747.484375 2112.515625,749.5 2115,749.5 C2117.484375,749.5 2119.5,747.484375 2119.5,745 Z M2119.5,745" style="fill:rgb(250,250,250);stroke:none" clip-path="url(#clip129)" />
<clipPath id="clip130"><path d="M2109,739 L2122,739 L2122,752 L2109,752 L2109,739 Z" /></clipPath>
<path d="M2119.5,745 C2119.5,742.515625 2117.484375,740.5 2115,740.5 C2112.515625,740.5 2110.5,742.515625 2110.5,745 C2110.5,747.484375 2112.515625,749.5 2115,749.5 C2117.484375,749.5 2119.5,747.484375 2119.5,745 Z M2119.5,745" style="fill:none;stroke:rgb(10,92,185)" clip-path="url(#clip130)" />
<clipPath id="clip131"><path d="M2109,739 L2122,739 L2122,752 L2109,752 L2109,739 Z" /></clipPath>
<path d="M2113,745 L2117,745" style="fill:none;stroke:rgb(150,160,200)" clip-path="url(#clip131)" />
<clipPath id="clip132"><path d="M2129,608 L2568,608 L2568,855 L2129,855 Z M2130,717 L2130,744 L2234,744 L2234,717 Z M2130,717 Z M2130,717" /></clipPath>
<path d="M2247,745 C2247,745 2248.7929688,745 2251,745 L2256,745" style="fill:none;stroke:rgb(10,92,185)" clip-path="url(#clip132)" />
<clipPath id="clip133"><path d="M2128,607 L2569,607 L2569,856 L2128,856 L2128,607 Z" /></clipPath>
<path d="M2234,745 L2247,745" style="fill:none;stroke:rgb(10,92,185)" clip-path="url(#clip133)" />
<clipPath id="clip134"><path d="M2128,715 L2237,715 L2237,747 L2128,747 L2128,715 Z" /></clipPath>
<path d="M2130,745 L2234,745 Z M2130,745" style="fill:none;stroke:rgb(10,92,185)" clip-path="url(#clip134)" />
<text x="2140" y="730" style="font:10px Dialog">BaseStrategy</text>
<clipPath id="clip135"><path d="M2235,725 L2248,725 L2248,738 L2235,738 L2235,725 Z" /></clipPath>
<path d="M2245.5,731 C2245.5,728.515625 2243.484375,726.5 2241,726.5 C2238.515625,726.5 2236.5,728.515625 2236.5,731 C2236.5,733.484375 2238.515625,735.5 2241,735.5 C2243.484375,735.5 2245.5,733.484375 2245.5,731 Z M2245.5,731" style="fill:rgb(250,250,250);stroke:none" clip-path="url(#clip135)" />
<clipPath id="clip136"><path d="M2235,725 L2248,725 L2248,738 L2235,738 L2235,725 Z" /></clipPath>
<path d="M2245.5,731 C2245.5,728.515625 2243.484375,726.5 2241,726.5 C2238.515625,726.5 2236.5,728.515625 2236.5,731 C2236.5,733.484375 2238.515625,735.5 2241,735.5 C2243.484375,735.5 2245.5,733.484375 2245.5,731 Z M2245.5,731" style="fill:none;stroke:rgb(10,92,185)" clip-path="url(#clip136)" />
<clipPath id="clip137"><path d="M2235,725 L2248,725 L2248,738 L2235,738 L2235,725 Z" /></clipPath>
<path d="M2239,731 L2243,731" style="fill:none;stroke:rgb(150,160,200)" clip-path="url(#clip137)" />
<clipPath id="clip138"><path d="M2255,608 L2568,608 L2568,855 L2255,855 Z M2256,717 L2256,744 L2404,744 L2404,717 Z M2256,717 Z M2256,717" /></clipPath>
<path d="M2417,745 L2417,641 C2417,638.7929688 2418.7929688,637 2421,637 L2426,637" style="fill:none;stroke:rgb(10,92,185)" clip-path="url(#clip138)" />
<clipPath id="clip139"><path d="M2255,608 L2568,608 L2568,855 L2255,855 Z M2256,717 L2256,744 L2404,744 L2404,717 Z M2256,717 Z M2256,717" /></clipPath>
<path d="M2417,745 L2417,672 C2417,669.7929688 2418.7929688,668 2421,668 L2426,668" style="fill:none;stroke:rgb(10,92,185)" clip-path="url(#clip139)" />
<clipPath id="clip140"><path d="M2255,608 L2568,608 L2568,855 L2255,855 Z M2256,717 L2256,744 L2404,744 L2404,717 Z M2256,717 Z M2256,717" /></clipPath>
<path d="M2417,745 L2417,703 C2417,700.7929688 2418.7929688,699 2421,699 L2426,699" style="fill:none;stroke:rgb(10,92,185)" clip-path="url(#clip140)" />
<clipPath id="clip141"><path d="M2255,608 L2568,608 L2568,855 L2255,855 Z M2256,717 L2256,744 L2404,744 L2404,717 Z M2256,717 Z M2256,717" /></clipPath>
<path d="M2417,745 L2417,734 C2417,731.7929688 2418.7929688,730 2421,730 L2426,730" style="fill:none;stroke:rgb(10,92,185)" clip-path="url(#clip141)" />
<clipPath id="clip142"><path d="M2255,608 L2568,608 L2568,855 L2255,855 Z M2256,717 L2256,744 L2404,744 L2404,717 Z M2256,717 Z M2256,717" /></clipPath>
<path d="M2417,745 L2417,757 C2417,759.2070313 2418.7929688,761 2421,761 L2426,761" style="fill:none;stroke:rgb(10,92,185)" clip-path="url(#clip142)" />
<clipPath id="clip143"><path d="M2255,608 L2568,608 L2568,855 L2255,855 Z M2256,717 L2256,744 L2404,744 L2404,717 Z M2256,717 Z M2256,717" /></clipPath>
<path d="M2417,745 L2417,788 C2417,790.2070313 2418.7929688,792 2421,792 L2426,792" style="fill:none;stroke:rgb(10,92,185)" clip-path="url(#clip143)" />
<clipPath id="clip144"><path d="M2255,608 L2568,608 L2568,855 L2255,855 Z M2256,717 L2256,744 L2404,744 L2404,717 Z M2256,717 Z M2256,717" /></clipPath>
<path d="M2417,745 L2417,819 C2417,821.2070313 2418.7929688,823 2421,823 L2426,823" style="fill:none;stroke:rgb(10,92,185)" clip-path="url(#clip144)" />
<clipPath id="clip145"><path d="M2255,608 L2568,608 L2568,855 L2255,855 Z M2256,717 L2256,744 L2404,744 L2404,717 Z M2256,717 Z M2256,717" /></clipPath>
<path d="M2417,745 L2417,850 C2417,852.2070313 2418.7929688,854 2421,854 L2426,854" style="fill:none;stroke:rgb(10,92,185)" clip-path="url(#clip145)" />
<clipPath id="clip146"><path d="M2254,607 L2569,607 L2569,856 L2254,856 L2254,607 Z" /></clipPath>
<path d="M2404,745 L2417,745" style="fill:none;stroke:rgb(10,92,185)" clip-path="url(#clip146)" />
<clipPath id="clip147"><path d="M2254,715 L2407,715 L2407,747 L2254,747 L2254,715 Z" /></clipPath>
<path d="M2256,745 L2404,745 Z M2256,745" style="fill:none;stroke:rgb(10,92,185)" clip-path="url(#clip147)" />
<text x="2266" y="730" style="font:10px Dialog">BacktestingStrategy</text>
<clipPath id="clip148"><path d="M2405,725 L2418,725 L2418,738 L2405,738 L2405,725 Z" /></clipPath>
<path d="M2415.5,731 C2415.5,728.515625 2413.484375,726.5 2411,726.5 C2408.515625,726.5 2406.5,728.515625 2406.5,731 C2406.5,733.484375 2408.515625,735.5 2411,735.5 C2413.484375,735.5 2415.5,733.484375 2415.5,731 Z M2415.5,731" style="fill:rgb(250,250,250);stroke:none" clip-path="url(#clip148)" />
<clipPath id="clip149"><path d="M2405,725 L2418,725 L2418,738 L2405,738 L2405,725 Z" /></clipPath>
<path d="M2415.5,731 C2415.5,728.515625 2413.484375,726.5 2411,726.5 C2408.515625,726.5 2406.5,728.515625 2406.5,731 C2406.5,733.484375 2408.515625,735.5 2411,735.5 C2413.484375,735.5 2415.5,733.484375 2415.5,731 Z M2415.5,731" style="fill:none;stroke:rgb(10,92,185)" clip-path="url(#clip149)" />
<clipPath id="clip150"><path d="M2405,725 L2418,725 L2418,738 L2405,738 L2405,725 Z" /></clipPath>
<path d="M2409,731 L2413,731" style="fill:none;stroke:rgb(150,160,200)" clip-path="url(#clip150)" />
<clipPath id="clip151"><path d="M2424,607 L2471,607 L2471,639 L2424,639 L2424,607 Z" /></clipPath>
<path d="M2426,637 L2468,637 Z M2426,637" style="fill:none;stroke:rgb(10,92,185)" clip-path="url(#clip151)" />
<text x="2436" y="622" style="font:10px Dialog">run</text>
<clipPath id="clip152"><path d="M2424,638 L2477,638 L2477,670 L2424,670 L2424,638 Z" /></clipPath>
<path d="M2426,668 L2474,668 Z M2426,668" style="fill:none;stroke:rgb(10,92,185)" clip-path="url(#clip152)" />
<text x="2436" y="653" style="font:10px Dialog">stop</text>
<clipPath id="clip153"><path d="M2424,669 L2546,669 L2546,701 L2424,701 L2424,669 Z" /></clipPath>
<path d="M2426,699 L2543,699 Z M2426,699" style="fill:none;stroke:rgb(10,92,185)" clip-path="url(#clip153)" />
<text x="2436" y="684" style="font:10px Dialog">enterLong(buy)</text>
<clipPath id="clip154"><path d="M2424,700 L2547,700 L2547,732 L2424,732 L2424,700 Z" /></clipPath>
<path d="M2426,730 L2544,730 Z M2426,730" style="fill:none;stroke:rgb(10,92,185)" clip-path="url(#clip154)" />
<text x="2436" y="715" style="font:10px Dialog">enterShort(sell)</text>
<clipPath id="clip155"><path d="M2424,731 L2496,731 L2496,763 L2424,763 L2424,731 Z" /></clipPath>
<path d="M2426,761 L2493,761 Z M2426,761" style="fill:none;stroke:rgb(10,92,185)" clip-path="url(#clip155)" />
<text x="2436" y="746" style="font:10px Dialog">getfeed</text>
<clipPath id="clip156"><path d="M2424,762 L2510,762 L2510,794 L2424,794 L2424,762 Z" /></clipPath>
<path d="M2426,792 L2507,792 Z M2426,792" style="fill:none;stroke:rgb(10,92,185)" clip-path="url(#clip156)" />
<text x="2436" y="777" style="font:10px Dialog">getbroker</text>
<clipPath id="clip157"><path d="M2424,793 L2494,793 L2494,825 L2424,825 L2424,793 Z" /></clipPath>
<path d="M2426,823 L2491,823 Z M2426,823" style="fill:none;stroke:rgb(10,92,185)" clip-path="url(#clip157)" />
<text x="2436" y="808" style="font:10px Dialog">onBars</text>
<clipPath id="clip158"><path d="M2424,824 L2569,824 L2569,856 L2424,856 L2424,824 Z" /></clipPath>
<path d="M2426,854 L2566,854 Z M2426,854" style="fill:none;stroke:rgb(10,92,185)" clip-path="url(#clip158)" />
<text x="2436" y="839" style="font:10px Dialog">add barfeed/broker</text>
<clipPath id="clip159"><path d="M2040,455 L2483,455 L2483,578 L2040,578 Z M2046,507 C2043.2382813,507 2041,509.2382813 2041,512 L2041,548 C2041,550.7617188 2043.2382813,553 2046,553 L2207,553 C2209.7617188,553 2212,550.7617188 2212,548 L2212,512 C2212,509.2382813 2209.7617188,507 2207,507 Z M2046,507 Z M2046,507" /></clipPath>
<path d="M2225,530 C2225,530 2226.7929688,530 2229,530 L2234,530" style="fill:none;stroke:rgb(10,92,185)" clip-path="url(#clip159)" />
<clipPath id="clip160"><path d="M2039,454 L2484,454 L2484,579 L2039,579 L2039,454 Z" /></clipPath>
<path d="M2212,530 L2225,530" style="fill:none;stroke:rgb(10,92,185)" clip-path="url(#clip160)" />
<clipPath id="clip161"><path d="M2039,505 L2215,505 L2215,556 L2039,556 L2039,505 Z" /></clipPath>
<path d="M2046,507 C2043.2382813,507 2041,509.2382813 2041,512 L2041,548 C2041,550.7617188 2043.2382813,553 2046,553 L2207,553 C2209.7617188,553 2212,550.7617188 2212,548 L2212,512 C2212,509.2382813 2209.7617188,507 2207,507 Z M2046,507" style="fill:rgb(255,255,255);stroke:none" clip-path="url(#clip161)" />
<clipPath id="clip162"><path d="M2039,505 L2215,505 L2215,556 L2039,556 L2039,505 Z" /></clipPath>
<path d="M2046,507 C2043.2382813,507 2041,509.2382813 2041,512 L2041,548 C2041,550.7617188 2043.2382813,553 2046,553 L2207,553 C2209.7617188,553 2212,550.7617188 2212,548 L2212,512 C2212,509.2382813 2209.7617188,507 2207,507 Z M2046,507" style="fill:none;stroke:rgb(13,70,170);stroke-width:2" clip-path="url(#clip162)" />
<text x="2056" y="530" style="font:14px Dialog">STRATANALYZER</text>
<clipPath id="clip163"><path d="M2213,524 L2226,524 L2226,537 L2213,537 L2213,524 Z" /></clipPath>
<path d="M2223.5,530 C2223.5,527.515625 2221.484375,525.5 2219,525.5 C2216.515625,525.5 2214.5,527.515625 2214.5,530 C2214.5,532.484375 2216.515625,534.5 2219,534.5 C2221.484375,534.5 2223.5,532.484375 2223.5,530 Z M2223.5,530" style="fill:rgb(250,250,250);stroke:none" clip-path="url(#clip163)" />
<clipPath id="clip164"><path d="M2213,524 L2226,524 L2226,537 L2213,537 L2213,524 Z" /></clipPath>
<path d="M2223.5,530 C2223.5,527.515625 2221.484375,525.5 2219,525.5 C2216.515625,525.5 2214.5,527.515625 2214.5,530 C2214.5,532.484375 2216.515625,534.5 2219,534.5 C2221.484375,534.5 2223.5,532.484375 2223.5,530 Z M2223.5,530" style="fill:none;stroke:rgb(10,92,185)" clip-path="url(#clip164)" />
<clipPath id="clip165"><path d="M2213,524 L2226,524 L2226,537 L2213,537 L2213,524 Z" /></clipPath>
<path d="M2217,530 L2221,530" style="fill:none;stroke:rgb(150,160,200)" clip-path="url(#clip165)" />
<clipPath id="clip166"><path d="M2233,455 L2483,455 L2483,578 L2233,578 Z M2234,502 L2234,529 L2361,529 L2361,502 Z M2234,502 Z M2234,502" /></clipPath>
<path d="M2374,530 L2374,488 C2374,485.7929688 2375.7929688,484 2378,484 L2383,484" style="fill:none;stroke:rgb(10,92,185)" clip-path="url(#clip166)" />
<clipPath id="clip167"><path d="M2233,455 L2483,455 L2483,578 L2233,578 Z M2234,502 L2234,529 L2361,529 L2361,502 Z M2234,502 Z M2234,502" /></clipPath>
<path d="M2374,530 L2374,519 C2374,516.7929688 2375.7929688,515 2378,515 L2383,515" style="fill:none;stroke:rgb(10,92,185)" clip-path="url(#clip167)" />
<clipPath id="clip168"><path d="M2233,455 L2483,455 L2483,578 L2233,578 Z M2234,502 L2234,529 L2361,529 L2361,502 Z M2234,502 Z M2234,502" /></clipPath>
<path d="M2374,530 L2374,542 C2374,544.2070313 2375.7929688,546 2378,546 L2383,546" style="fill:none;stroke:rgb(10,92,185)" clip-path="url(#clip168)" />
<clipPath id="clip169"><path d="M2233,455 L2483,455 L2483,578 L2233,578 Z M2234,502 L2234,529 L2361,529 L2361,502 Z M2234,502 Z M2234,502" /></clipPath>
<path d="M2374,530 L2374,573 C2374,575.2070313 2375.7929688,577 2378,577 L2383,577" style="fill:none;stroke:rgb(10,92,185)" clip-path="url(#clip169)" />
<clipPath id="clip170"><path d="M2232,454 L2484,454 L2484,579 L2232,579 L2232,454 Z" /></clipPath>
<path d="M2361,530 L2374,530" style="fill:none;stroke:rgb(10,92,185)" clip-path="url(#clip170)" />
<clipPath id="clip171"><path d="M2232,500 L2364,500 L2364,532 L2232,532 L2232,500 Z" /></clipPath>
<path d="M2234,530 L2361,530 Z M2234,530" style="fill:none;stroke:rgb(10,92,185)" clip-path="url(#clip171)" />
<text x="2244" y="515" style="font:10px Dialog">StrategyAnalyzer</text>
<clipPath id="clip172"><path d="M2362,510 L2375,510 L2375,523 L2362,523 L2362,510 Z" /></clipPath>
<path d="M2372.5,516 C2372.5,513.515625 2370.484375,511.5 2368,511.5 C2365.515625,511.5 2363.5,513.515625 2363.5,516 C2363.5,518.484375 2365.515625,520.5 2368,520.5 C2370.484375,520.5 2372.5,518.484375 2372.5,516 Z M2372.5,516" style="fill:rgb(250,250,250);stroke:none" clip-path="url(#clip172)" />
<clipPath id="clip173"><path d="M2362,510 L2375,510 L2375,523 L2362,523 L2362,510 Z" /></clipPath>
<path d="M2372.5,516 C2372.5,513.515625 2370.484375,511.5 2368,511.5 C2365.515625,511.5 2363.5,513.515625 2363.5,516 C2363.5,518.484375 2365.515625,520.5 2368,520.5 C2370.484375,520.5 2372.5,518.484375 2372.5,516 Z M2372.5,516" style="fill:none;stroke:rgb(10,92,185)" clip-path="url(#clip173)" />
<clipPath id="clip174"><path d="M2362,510 L2375,510 L2375,523 L2362,523 L2362,510 Z" /></clipPath>
<path d="M2366,516 L2370,516" style="fill:none;stroke:rgb(150,160,200)" clip-path="url(#clip174)" />
<clipPath id="clip175"><path d="M2381,454 L2484,454 L2484,486 L2381,486 L2381,454 Z" /></clipPath>
<path d="M2383,484 L2481,484 Z M2383,484" style="fill:none;stroke:rgb(10,92,185)" clip-path="url(#clip175)" />
<text x="2393" y="469" style="font:10px Dialog">SharpeRatio</text>
<clipPath id="clip176"><path d="M2381,485 L2476,485 L2476,517 L2381,517 L2381,485 Z" /></clipPath>
<path d="M2383,515 L2473,515 Z M2383,515" style="fill:none;stroke:rgb(10,92,185)" clip-path="url(#clip176)" />
<text x="2393" y="500" style="font:10px Dialog">DrawDown</text>
<clipPath id="clip177"><path d="M2381,516 L2454,516 L2454,548 L2381,548 L2381,516 Z" /></clipPath>
<path d="M2383,546 L2451,546 Z M2383,546" style="fill:none;stroke:rgb(10,92,185)" clip-path="url(#clip177)" />
<text x="2393" y="531" style="font:10px Dialog">Returns</text>
<clipPath id="clip178"><path d="M2381,547 L2448,547 L2448,579 L2381,579 L2381,547 Z" /></clipPath>
<path d="M2383,577 L2445,577 Z M2383,577" style="fill:none;stroke:rgb(10,92,185)" clip-path="url(#clip178)" />
<text x="2393" y="562" style="font:10px Dialog">Trades</text>
<clipPath id="clip179"><path d="M2047,356 L2320,356 L2320,425 L2047,425 Z M2053,377 C2050.2382813,377 2048,379.2382813 2048,382 L2048,418 C2048,420.7617188 2050.2382813,423 2053,423 L2153,423 C2155.7617188,423 2158,420.7617188 2158,418 L2158,382 C2158,379.2382813 2155.7617188,377 2153,377 Z M2053,377 Z M2053,377" /></clipPath>
<path d="M2171,400 L2171,389 C2171,386.7929688 2172.7929688,385 2175,385 L2180,385" style="fill:none;stroke:rgb(10,92,185)" clip-path="url(#clip179)" />
<clipPath id="clip180"><path d="M2047,356 L2320,356 L2320,425 L2047,425 Z M2053,377 C2050.2382813,377 2048,379.2382813 2048,382 L2048,418 C2048,420.7617188 2050.2382813,423 2053,423 L2153,423 C2155.7617188,423 2158,420.7617188 2158,418 L2158,382 C2158,379.2382813 2155.7617188,377 2153,377 Z M2053,377 Z M2053,377" /></clipPath>
<path d="M2171,400 L2171,412 C2171,414.2070313 2172.7929688,416 2175,416 L2180,416" style="fill:none;stroke:rgb(10,92,185)" clip-path="url(#clip180)" />
<clipPath id="clip181"><path d="M2046,355 L2321,355 L2321,426 L2046,426 L2046,355 Z" /></clipPath>
<path d="M2158,400 L2171,400" style="fill:none;stroke:rgb(10,92,185)" clip-path="url(#clip181)" />
<clipPath id="clip182"><path d="M2046,375 L2161,375 L2161,426 L2046,426 L2046,375 Z" /></clipPath>
<path d="M2053,377 C2050.2382813,377 2048,379.2382813 2048,382 L2048,418 C2048,420.7617188 2050.2382813,423 2053,423 L2153,423 C2155.7617188,423 2158,420.7617188 2158,418 L2158,382 C2158,379.2382813 2155.7617188,377 2153,377 Z M2053,377" style="fill:rgb(255,255,255);stroke:none" clip-path="url(#clip182)" />
<clipPath id="clip183"><path d="M2046,375 L2161,375 L2161,426 L2046,426 L2046,375 Z" /></clipPath>
<path d="M2053,377 C2050.2382813,377 2048,379.2382813 2048,382 L2048,418 C2048,420.7617188 2050.2382813,423 2053,423 L2153,423 C2155.7617188,423 2158,420.7617188 2158,418 L2158,382 C2158,379.2382813 2155.7617188,377 2153,377 Z M2053,377" style="fill:none;stroke:rgb(13,70,170);stroke-width:2" clip-path="url(#clip183)" />
<text x="2063" y="400" style="font:14px Dialog">PLOTTER</text>
<clipPath id="clip184"><path d="M2159,394 L2172,394 L2172,407 L2159,407 L2159,394 Z" /></clipPath>
<path d="M2169.5,400 C2169.5,397.515625 2167.484375,395.5 2165,395.5 C2162.515625,395.5 2160.5,397.515625 2160.5,400 C2160.5,402.484375 2162.515625,404.5 2165,404.5 C2167.484375,404.5 2169.5,402.484375 2169.5,400 Z M2169.5,400" style="fill:rgb(250,250,250);stroke:none" clip-path="url(#clip184)" />
<clipPath id="clip185"><path d="M2159,394 L2172,394 L2172,407 L2159,407 L2159,394 Z" /></clipPath>
<path d="M2169.5,400 C2169.5,397.515625 2167.484375,395.5 2165,395.5 C2162.515625,395.5 2160.5,397.515625 2160.5,400 C2160.5,402.484375 2162.515625,404.5 2165,404.5 C2167.484375,404.5 2169.5,402.484375 2169.5,400 Z M2169.5,400" style="fill:none;stroke:rgb(10,92,185)" clip-path="url(#clip185)" />
<clipPath id="clip186"><path d="M2159,394 L2172,394 L2172,407 L2159,407 L2159,394 Z" /></clipPath>
<path d="M2163,400 L2167,400" style="fill:none;stroke:rgb(150,160,200)" clip-path="url(#clip186)" />
<clipPath id="clip187"><path d="M2178,355 L2321,355 L2321,387 L2178,387 L2178,355 Z" /></clipPath>
<path d="M2180,385 L2318,385 Z M2180,385" style="fill:none;stroke:rgb(10,92,185)" clip-path="url(#clip187)" />
<text x="2190" y="371" style="font:10px Dialog">InstrumentSubplot</text>
<clipPath id="clip188"><path d="M2178,386 L2299,386 L2299,418 L2178,418 L2178,386 Z" /></clipPath>
<path d="M2180,416 L2296,416 Z M2180,416" style="fill:none;stroke:rgb(10,92,185)" clip-path="url(#clip188)" />
<text x="2190" y="401" style="font:10px Dialog">StrategyPlotter</text>
<clipPath id="clip189"><path d="M2044,271 L2348,271 L2348,325 L2044,325 Z M2050,277 C2047.2382813,277 2045,279.2382813 2045,282 L2045,318 C2045,320.7617188 2047.2382813,323 2050,323 L2170,323 C2172.7617188,323 2175,320.7617188 2175,318 L2175,282 C2175,279.2382813 2172.7617188,277 2170,277 Z M2050,277 Z M2050,277" /></clipPath>
<path d="M2188,300 C2188,300 2189.7929688,300 2192,300 L2197,300" style="fill:none;stroke:rgb(10,92,185)" clip-path="url(#clip189)" />
<clipPath id="clip190"><path d="M2043,270 L2349,270 L2349,326 L2043,326 L2043,270 Z" /></clipPath>
<path d="M2175,300 L2188,300" style="fill:none;stroke:rgb(10,92,185)" clip-path="url(#clip190)" />
<clipPath id="clip191"><path d="M2043,275 L2178,275 L2178,326 L2043,326 L2043,275 Z" /></clipPath>
<path d="M2050,277 C2047.2382813,277 2045,279.2382813 2045,282 L2045,318 C2045,320.7617188 2047.2382813,323 2050,323 L2170,323 C2172.7617188,323 2175,320.7617188 2175,318 L2175,282 C2175,279.2382813 2172.7617188,277 2170,277 Z M2050,277" style="fill:rgb(255,255,255);stroke:none" clip-path="url(#clip191)" />
<clipPath id="clip192"><path d="M2043,275 L2178,275 L2178,326 L2043,326 L2043,275 Z" /></clipPath>
<path d="M2050,277 C2047.2382813,277 2045,279.2382813 2045,282 L2045,318 C2045,320.7617188 2047.2382813,323 2050,323 L2170,323 C2172.7617188,323 2175,320.7617188 2175,318 L2175,282 C2175,279.2382813 2172.7617188,277 2170,277 Z M2050,277" style="fill:none;stroke:rgb(13,70,170);stroke-width:2" clip-path="url(#clip192)" />
<text x="2060" y="301" style="font:14px Dialog">TECHNICAL</text>
<clipPath id="clip193"><path d="M2176,294 L2189,294 L2189,307 L2176,307 L2176,294 Z" /></clipPath>
<path d="M2186.5,300 C2186.5,297.515625 2184.484375,295.5 2182,295.5 C2179.515625,295.5 2177.5,297.515625 2177.5,300 C2177.5,302.484375 2179.515625,304.5 2182,304.5 C2184.484375,304.5 2186.5,302.484375 2186.5,300 Z M2186.5,300" style="fill:rgb(250,250,250);stroke:none" clip-path="url(#clip193)" />
<clipPath id="clip194"><path d="M2176,294 L2189,294 L2189,307 L2176,307 L2176,294 Z" /></clipPath>
<path d="M2186.5,300 C2186.5,297.515625 2184.484375,295.5 2182,295.5 C2179.515625,295.5 2177.5,297.515625 2177.5,300 C2177.5,302.484375 2179.515625,304.5 2182,304.5 C2184.484375,304.5 2186.5,302.484375 2186.5,300 Z M2186.5,300" style="fill:none;stroke:rgb(10,92,185)" clip-path="url(#clip194)" />
<clipPath id="clip195"><path d="M2176,294 L2189,294 L2189,307 L2176,307 L2176,294 Z" /></clipPath>
<path d="M2180,300 L2184,300" style="fill:none;stroke:rgb(150,160,200)" clip-path="url(#clip195)" />
<clipPath id="clip196"><path d="M2195,270 L2349,270 L2349,302 L2195,302 L2195,270 Z" /></clipPath>
<path d="M2197,300 L2346,300 Z M2197,300" style="fill:none;stroke:rgb(10,92,185)" clip-path="url(#clip196)" />
<text x="2207" y="286" style="font:10px Dialog">use ta-lib for macd...</text>
<clipPath id="clip197"><path d="M2034,173 L2775,173 L2775,242 L2034,242 Z M2040,194 C2037.2382813,194 2035,196.2382813 2035,199 L2035,235 C2035,237.7617188 2037.2382813,240 2040,240 L2317,240 C2319.7617188,240 2322,237.7617188 2322,235 L2322,199 C2322,196.2382813 2319.7617188,194 2317,194 Z M2040,194 Z M2040,194" /></clipPath>
<path d="M2335,217 L2335,206 C2335,203.7929688 2336.7929688,202 2339,202 L2344,202" style="fill:none;stroke:rgb(10,92,185)" clip-path="url(#clip197)" />
<clipPath id="clip198"><path d="M2034,173 L2775,173 L2775,242 L2034,242 Z M2040,194 C2037.2382813,194 2035,196.2382813 2035,199 L2035,235 C2035,237.7617188 2037.2382813,240 2040,240 L2317,240 C2319.7617188,240 2322,237.7617188 2322,235 L2322,199 C2322,196.2382813 2319.7617188,194 2317,194 Z M2040,194 Z M2040,194" /></clipPath>
<path d="M2335,217 L2335,229 C2335,231.2070313 2336.7929688,233 2339,233 L2344,233" style="fill:none;stroke:rgb(10,92,185)" clip-path="url(#clip198)" />
<clipPath id="clip199"><path d="M2033,172 L2776,172 L2776,243 L2033,243 L2033,172 Z" /></clipPath>
<path d="M2322,217 L2335,217" style="fill:none;stroke:rgb(10,92,185)" clip-path="url(#clip199)" />
<clipPath id="clip200"><path d="M2033,192 L2325,192 L2325,243 L2033,243 L2033,192 Z" /></clipPath>
<path d="M2040,194 C2037.2382813,194 2035,196.2382813 2035,199 L2035,235 C2035,237.7617188 2037.2382813,240 2040,240 L2317,240 C2319.7617188,240 2322,237.7617188 2322,235 L2322,199 C2322,196.2382813 2319.7617188,194 2317,194 Z M2040,194" style="fill:rgb(255,255,255);stroke:none" clip-path="url(#clip200)" />
<clipPath id="clip201"><path d="M2033,192 L2325,192 L2325,243 L2033,243 L2033,192 Z" /></clipPath>
<path d="M2040,194 C2037.2382813,194 2035,196.2382813 2035,199 L2035,235 C2035,237.7617188 2037.2382813,240 2040,240 L2317,240 C2319.7617188,240 2322,237.7617188 2322,235 L2322,199 C2322,196.2382813 2319.7617188,194 2317,194 Z M2040,194" style="fill:none;stroke:rgb(13,70,170);stroke-width:2" clip-path="url(#clip201)" />
<text x="2050" y="218" style="font:14px Dialog">DATASERIES(FOR TECHNICAL)</text>
<clipPath id="clip202"><path d="M2323,211 L2336,211 L2336,224 L2323,224 L2323,211 Z" /></clipPath>
<path d="M2333.5,217 C2333.5,214.515625 2331.484375,212.5 2329,212.5 C2326.515625,212.5 2324.5,214.515625 2324.5,217 C2324.5,219.484375 2326.515625,221.5 2329,221.5 C2331.484375,221.5 2333.5,219.484375 2333.5,217 Z M2333.5,217" style="fill:rgb(250,250,250);stroke:none" clip-path="url(#clip202)" />
<clipPath id="clip203"><path d="M2323,211 L2336,211 L2336,224 L2323,224 L2323,211 Z" /></clipPath>
<path d="M2333.5,217 C2333.5,214.515625 2331.484375,212.5 2329,212.5 C2326.515625,212.5 2324.5,214.515625 2324.5,217 C2324.5,219.484375 2326.515625,221.5 2329,221.5 C2331.484375,221.5 2333.5,219.484375 2333.5,217 Z M2333.5,217" style="fill:none;stroke:rgb(10,92,185)" clip-path="url(#clip203)" />
<clipPath id="clip204"><path d="M2323,211 L2336,211 L2336,224 L2323,224 L2323,211 Z" /></clipPath>
<path d="M2327,217 L2331,217" style="fill:none;stroke:rgb(150,160,200)" clip-path="url(#clip204)" />
<clipPath id="clip205"><path d="M2343,173 L2775,173 L2775,203 L2343,203 Z M2344,174 L2344,201 L2432,201 L2432,174 Z M2344,174 Z M2344,174" /></clipPath>
<path d="M2445,202 C2445,202 2446.7929688,202 2449,202 L2454,202" style="fill:none;stroke:rgb(10,92,185)" clip-path="url(#clip205)" />
<clipPath id="clip206"><path d="M2342,172 L2776,172 L2776,204 L2342,204 L2342,172 Z" /></clipPath>
<path d="M2432,202 L2445,202" style="fill:none;stroke:rgb(10,92,185)" clip-path="url(#clip206)" />
<clipPath id="clip207"><path d="M2342,172 L2435,172 L2435,204 L2342,204 L2342,172 Z" /></clipPath>
<path d="M2344,202 L2432,202 Z M2344,202" style="fill:none;stroke:rgb(10,92,185)" clip-path="url(#clip207)" />
<text x="2354" y="188" style="font:10px Dialog">DataSeries</text>
<clipPath id="clip208"><path d="M2433,182 L2446,182 L2446,195 L2433,195 L2433,182 Z" /></clipPath>
<path d="M2443.5,188 C2443.5,185.515625 2441.484375,183.5 2439,183.5 C2436.515625,183.5 2434.5,185.515625 2434.5,188 C2434.5,190.484375 2436.515625,192.5 2439,192.5 C2441.484375,192.5 2443.5,190.484375 2443.5,188 Z M2443.5,188" style="fill:rgb(250,250,250);stroke:none" clip-path="url(#clip208)" />
<clipPath id="clip209"><path d="M2433,182 L2446,182 L2446,195 L2433,195 L2433,182 Z" /></clipPath>
<path d="M2443.5,188 C2443.5,185.515625 2441.484375,183.5 2439,183.5 C2436.515625,183.5 2434.5,185.515625 2434.5,188 C2434.5,190.484375 2436.515625,192.5 2439,192.5 C2441.484375,192.5 2443.5,190.484375 2443.5,188 Z M2443.5,188" style="fill:none;stroke:rgb(10,92,185)" clip-path="url(#clip209)" />
<clipPath id="clip210"><path d="M2433,182 L2446,182 L2446,195 L2433,195 L2433,182 Z" /></clipPath>
<path d="M2437,188 L2441,188" style="fill:none;stroke:rgb(150,160,200)" clip-path="url(#clip210)" />
<clipPath id="clip211"><path d="M2453,173 L2775,173 L2775,203 L2453,203 Z M2454,174 L2454,201 L2602,201 L2602,174 Z M2454,174 Z M2454,174" /></clipPath>
<path d="M2615,202 C2615,202 2616.7929688,202 2619,202 L2624,202" style="fill:none;stroke:rgb(10,92,185)" clip-path="url(#clip211)" />
<clipPath id="clip212"><path d="M2452,172 L2776,172 L2776,204 L2452,204 L2452,172 Z" /></clipPath>
<path d="M2602,202 L2615,202" style="fill:none;stroke:rgb(10,92,185)" clip-path="url(#clip212)" />
<clipPath id="clip213"><path d="M2452,172 L2605,172 L2605,204 L2452,204 L2452,172 Z" /></clipPath>
<path d="M2454,202 L2602,202 Z M2454,202" style="fill:none;stroke:rgb(10,92,185)" clip-path="url(#clip213)" />
<text x="2464" y="188" style="font:10px Dialog">SequenceDataSeries</text>
<clipPath id="clip214"><path d="M2603,182 L2616,182 L2616,195 L2603,195 L2603,182 Z" /></clipPath>
<path d="M2613.5,188 C2613.5,185.515625 2611.484375,183.5 2609,183.5 C2606.515625,183.5 2604.5,185.515625 2604.5,188 C2604.5,190.484375 2606.515625,192.5 2609,192.5 C2611.484375,192.5 2613.5,190.484375 2613.5,188 Z M2613.5,188" style="fill:rgb(250,250,250);stroke:none" clip-path="url(#clip214)" />
<clipPath id="clip215"><path d="M2603,182 L2616,182 L2616,195 L2603,195 L2603,182 Z" /></clipPath>
<path d="M2613.5,188 C2613.5,185.515625 2611.484375,183.5 2609,183.5 C2606.515625,183.5 2604.5,185.515625 2604.5,188 C2604.5,190.484375 2606.515625,192.5 2609,192.5 C2611.484375,192.5 2613.5,190.484375 2613.5,188 Z M2613.5,188" style="fill:none;stroke:rgb(10,92,185)" clip-path="url(#clip215)" />
<clipPath id="clip216"><path d="M2603,182 L2616,182 L2616,195 L2603,195 L2603,182 Z" /></clipPath>
<path d="M2607,188 L2611,188" style="fill:none;stroke:rgb(150,160,200)" clip-path="url(#clip216)" />
<clipPath id="clip217"><path d="M2622,172 L2776,172 L2776,204 L2622,204 L2622,172 Z" /></clipPath>
<path d="M2624,202 L2773,202 Z M2624,202" style="fill:none;stroke:rgb(10,92,185)" clip-path="url(#clip217)" />
<text x="2634" y="188" style="font:10px Dialog">bards.BarDataSeries</text>
<clipPath id="clip218"><path d="M2342,203 L2433,203 L2433,235 L2342,235 L2342,203 Z" /></clipPath>
<path d="M2344,233 L2430,233 Z M2344,233" style="fill:none;stroke:rgb(10,92,185)" clip-path="url(#clip218)" />
<text x="2354" y="219" style="font:10px Dialog">resampled</text>
<clipPath id="clip219"><path d="M2014,93 L2385,93 L2385,144 L2014,144 L2014,93 Z" /></clipPath>
<path d="M2021,95 C2018.2382813,95 2016,97.2382813 2016,100 L2016,136 C2016,138.7617188 2018.2382813,141 2021,141 L2377,141 C2379.7617188,141 2382,138.7617188 2382,136 L2382,100 C2382,97.2382813 2379.7617188,95 2377,95 Z M2021,95" style="fill:rgb(255,255,255);stroke:none" clip-path="url(#clip219)" />
<clipPath id="clip220"><path d="M2014,93 L2385,93 L2385,144 L2014,144 L2014,93 Z" /></clipPath>
<path d="M2021,95 C2018.2382813,95 2016,97.2382813 2016,100 L2016,136 C2016,138.7617188 2018.2382813,141 2021,141 L2377,141 C2379.7617188,141 2382,138.7617188 2382,136 L2382,100 C2382,97.2382813 2379.7617188,95 2377,95 Z M2021,95" style="fill:none;stroke:rgb(13,70,170);stroke-width:2" clip-path="url(#clip220)" />
<text x="2031" y="119" style="font:14px Dialog">OPTIMIZER()</text>
<clipPath id="clip221"><path d="M1986,14 L2169,14 L2169,65 L1986,65 L1986,14 Z" /></clipPath>
<path d="M1993,16 C1990.2382813,16 1988,18.2382813 1988,21 L1988,57 C1988,59.7617188 1990.2382813,62 1993,62 L2161,62 C2163.7617188,62 2166,59.7617188 2166,57 L2166,21 C2166,18.2382813 2163.7617188,16 2161,16 Z M1993,16" style="fill:rgb(255,255,255);stroke:none" clip-path="url(#clip221)" />
<clipPath id="clip222"><path d="M1986,14 L2169,14 L2169,65 L1986,65 L1986,14 Z" /></clipPath>
<path d="M1993,16 C1990.2382813,16 1988,18.2382813 1988,21 L1988,57 C1988,59.7617188 1990.2382813,62 1993,62 L2161,62 C2163.7617188,62 2166,59.7617188 2166,57 L2166,21 C2166,18.2382813 2163.7617188,16 2161,16 Z M1993,16" style="fill:none;stroke:rgb(13,70,170);stroke-width:2" clip-path="url(#clip222)" />
<text x="2003" y="40" style="font:14px Dialog">MARKETSESSION</text>
<clipPath id="clip223"><path d="M1333,471 L1361,471 L1361,547 L1333,547 L1333,471 Z" /></clipPath>
<path d="M1358,544.3007813 C1343.3320313,544.3007813 1339,538.3671875 1345,526.5 C1351,515.0351563 1348,509.3007813 1336,509.3007813 L1336,508.6992188 C1350.6679688,508.6992188 1355,514.6328125 1349,526.5 C1343,537.9648438 1346,543.6992188 1358,543.6992188 L1358,544.3007813" style="fill:rgb(92,153,212);stroke:none" clip-path="url(#clip223)" />
<clipPath id="clip224"><path d="M1333,471 L1361,471 L1361,547 L1333,547 L1333,471 Z" /></clipPath>
<path d="M1336,509.3007813 C1350.6679688,509.3007813 1355,503.5351563 1349,492 C1343,480.8671875 1346,475.3007813 1358,475.3007813 L1358,474.6992188 C1343.3320313,474.6992188 1339,480.4648438 1345,492 C1351,503.1328125 1348,508.6992188 1336,508.6992188 L1336,509.3007813" style="fill:rgb(92,153,212);stroke:none" clip-path="url(#clip224)" />
<clipPath id="clip225"><path d="M815,477 L1332,477 L1332,538 L815,538 L815,477 Z" /></clipPath>
<path d="M1157,509 L1143,509" style="fill:none;stroke:rgb(10,92,185);stroke-width:2" clip-path="url(#clip225)" />
<text x="1173" y="508" style="font:12px Dialog">backtesting.Broker</text>
<clipPath id="clip226"><path d="M1145,503 L1158,503 L1158,516 L1145,516 L1145,503 Z" /></clipPath>
<path d="M1155.5,509 C1155.5,506.515625 1153.484375,504.5 1151,504.5 C1148.515625,504.5 1146.5,506.515625 1146.5,509 C1146.5,511.484375 1148.515625,513.5 1151,513.5 C1153.484375,513.5 1155.5,511.484375 1155.5,509 Z M1155.5,509" style="fill:rgb(250,250,250);stroke:none" clip-path="url(#clip226)" />
<clipPath id="clip227"><path d="M1145,503 L1158,503 L1158,516 L1145,516 L1145,503 Z" /></clipPath>
<path d="M1155.5,509 C1155.5,506.515625 1153.484375,504.5 1151,504.5 C1148.515625,504.5 1146.5,506.515625 1146.5,509 C1146.5,511.484375 1148.515625,513.5 1151,513.5 C1153.484375,513.5 1155.5,511.484375 1155.5,509 Z M1155.5,509" style="fill:none;stroke:rgb(10,92,185)" clip-path="url(#clip227)" />
<clipPath id="clip228"><path d="M1145,503 L1158,503 L1158,516 L1145,516 L1145,503 Z" /></clipPath>
<path d="M1149,509 L1153,509" style="fill:none;stroke:rgb(150,160,200)" clip-path="url(#clip228)" />
<clipPath id="clip229"><path d="M816,478 L1138,478 L1138,510 L816,510 Z M968,479 L968,508 L1136,508 L1136,479 Z M968,479 Z M968,479" /></clipPath>
<path d="M954,509 C954,509 952.2070313,509 950,509 L946,509" style="fill:none;stroke:rgb(10,92,185);stroke-width:2" clip-path="url(#clip229)" />
<clipPath id="clip230"><path d="M815,477 L1139,477 L1139,511 L815,511 L815,477 Z" /></clipPath>
<path d="M968,509 L954,509" style="fill:none;stroke:rgb(10,92,185);stroke-width:2" clip-path="url(#clip230)" />
<clipPath id="clip231"><path d="M966,477 L1139,477 L1139,511 L966,511 L966,477 Z" /></clipPath>
<path d="M968,509 L1136,509 Z M968,509" style="fill:none;stroke:rgb(10,92,185);stroke-width:2" clip-path="url(#clip231)" />
<text x="980" y="493" style="font:10px Dialog">commitOrderExecution</text>
<clipPath id="clip232"><path d="M955,488 L968,488 L968,501 L955,501 L955,488 Z" /></clipPath>
<path d="M965.5,494 C965.5,491.515625 963.484375,489.5 961,489.5 C958.515625,489.5 956.5,491.515625 956.5,494 C956.5,496.484375 958.515625,498.5 961,498.5 C963.484375,498.5 965.5,496.484375 965.5,494 Z M965.5,494" style="fill:rgb(250,250,250);stroke:none" clip-path="url(#clip232)" />
<clipPath id="clip233"><path d="M955,488 L968,488 L968,501 L955,501 L955,488 Z" /></clipPath>
<path d="M965.5,494 C965.5,491.515625 963.484375,489.5 961,489.5 C958.515625,489.5 956.5,491.515625 956.5,494 C956.5,496.484375 958.515625,498.5 961,498.5 C963.484375,498.5 965.5,496.484375 965.5,494 Z M965.5,494" style="fill:none;stroke:rgb(10,92,185)" clip-path="url(#clip233)" />
<clipPath id="clip234"><path d="M955,488 L968,488 L968,501 L955,501 L955,488 Z" /></clipPath>
<path d="M959,494 L963,494" style="fill:none;stroke:rgb(150,160,200)" clip-path="url(#clip234)" />
<clipPath id="clip235"><path d="M815,477 L949,477 L949,511 L815,511 L815,477 Z" /></clipPath>
<path d="M817,509 L946,509 Z M817,509" style="fill:none;stroke:rgb(10,92,185);stroke-width:2" clip-path="url(#clip235)" />
<text x="829" y="493" style="font:10px Dialog">notifyOrderEvent</text>
<clipPath id="clip236"><path d="M1430,314 L1547,314 L1547,583 L1430,583 L1430,314 Z" /></clipPath>
<path d="M1433.6289063,317 C1443,429 1532,466 1541.5703125,580" style="fill:none;stroke:rgb(10,92,185);stroke-width:2;stroke-dasharray:12,6;stroke-dashoffset:0" clip-path="url(#clip236)" />
<clipPath id="clip237"><path d="M1430,314 L1547,314 L1547,583 L1430,583 L1430,314 Z" /></clipPath>
<path d="M1537.0039063,573.4296875 L1541.5703125,580 L1544.9765625,572.7617188 Z M1537.0039063,573.4296875" style="fill:rgb(10,92,185);stroke:none" clip-path="url(#clip237)" />
<clipPath id="clip238"><path d="M1430,314 L1547,314 L1547,583 L1430,583 L1430,314 Z" /></clipPath>
<path d="M1537.0039063,573.4296875 L1541.5703125,580 L1544.9765625,572.7617188 Z M1537.0039063,573.4296875" style="fill:none;stroke:rgb(10,92,185);stroke-width:2" clip-path="url(#clip238)" />
</svg>
